<?xml version="1.0" standalone="yes"?>

<svg version="1.1" viewBox="0.0 0.0 1438.2335958005249 719.1154855643044" fill="none" stroke="none" stroke-linecap="square" stroke-miterlimit="10" xmlns="http://www.w3.org/2000/svg" xmlns:xlink="http://www.w3.org/1999/xlink"><clipPath id="p.0"><path d="m0 0l1438.2336 0l0 719.1155l-1438.2336 0l0 -719.1155z" clip-rule="nonzero"></path></clipPath><g clip-path="url(#p.0)"><path fill="#000000" fill-opacity="0.0" d="m0 0l1438.2336 0l0 719.1155l-1438.2336 0z" fill-rule="nonzero"></path><path fill="#85200c" d="m483.52756 -0.8843328l0 267.59637l58.40341 0l0 -210.64543l61.58899 210.64543l60.52716 0l61.80139 -210.64543l0 210.64543l58.40338 0l0 -267.59637l-94.29492 0l-55.85486 182.53505l-56.492004 -182.53505z" fill-rule="evenodd"></path><path fill="#85200c" d="m970.71796 173.61917l0 10.221954c0 12.290695 -0.7786865 20.626465 -2.3361206 25.007309c-2.2653198 6.6929474 -7.008423 12.351532 -14.229187 16.975754c-9.769287 6.084503 -20.034119 9.126755 -30.794495 9.126755c-9.627747 0 -17.556396 -2.616333 -23.786133 -7.848999c-6.2296753 -5.2326813 -9.344543 -11.438873 -9.344543 -18.618576c0 -7.301407 3.8935547 -13.325058 11.680725 -18.070969c5.096985 -2.9205627 15.928162 -5.9019775 32.49347 -8.944229c16.565369 -3.0422516 28.670776 -5.6585846 36.316284 -7.848999zm-36.316284 -105.14019c-29.307861 0 -51.39496 4.502533 -66.26129 13.507599c-14.866272 9.005058 -25.343506 22.877724 -31.43164 41.61799l54.155884 8.396606c3.6812134 -9.005058 8.495056 -15.292374 14.441589 -18.861954c5.946472 -3.6101303 14.229187 -5.4151993 24.847961 -5.4151993c15.71582 0 26.405396 2.1092987 32.068787 6.327881c5.66333 4.1780243 8.494995 11.19548 8.494995 21.052376l0 5.110977c-10.760376 3.8940887 -30.086548 8.092392 -57.978638 12.594925c-20.671204 3.407318 -36.505005 7.4027863 -47.501404 11.986465c-10.949158 4.5430756 -19.467773 11.114349 -25.555908 19.713776c-6.0880737 8.558853 -9.132141 18.314362 -9.132141 29.266464c0 16.549835 6.6780396 30.23996 20.034119 41.070374c13.40332 10.830414 31.714783 16.245636 54.93457 16.245636c13.167297 0 25.555908 -2.1295776 37.16577 -6.388733c11.609924 -4.2591553 22.511902 -10.647888 32.705933 -19.166183c0.42474365 0.97351074 1.1326904 2.9813995 2.1237793 6.023651c2.2653198 6.6929474 4.176697 11.743088 5.734131 15.150406l59.040527 0c-5.2386475 -9.248444 -8.825439 -17.908722 -10.760376 -25.98082c-1.8878174 -8.112671 -2.831665 -20.687302 -2.831665 -37.723907l0.63708496 -59.87149c0 -22.26928 -2.666504 -37.561653 -7.9995117 -45.877144c-5.2857666 -8.356041 -14.441528 -15.231529 -27.467285 -20.626457c-13.025696 -5.435486 -32.847473 -8.153236 -59.46527 -8.153236z" fill-rule="evenodd"></path><path fill="#85200c" d="m1150.8127 4.4091835l-59.890015 29.93575l0 38.514893l-27.396484 0l0 40.887848l27.396484 0l0 84.513725c0 18.13182 0.63720703 30.179123 1.911377 36.141937c1.5574951 8.396622 4.341919 15.069275 8.353516 20.01802c4.058716 4.908142 10.406372 8.92392 19.042969 12.047302c8.636719 3.0827942 18.335205 4.624237 29.095581 4.624237c17.556396 0 33.272217 -2.5555115 47.14746 -7.6664734l-5.097046 -39.79265c-10.477173 3.2856293 -18.476685 4.9284363 -23.998535 4.9284363c-3.9642334 0 -7.338745 -0.8518219 -10.123169 -2.555481c-2.7373047 -1.703659 -4.50708 -3.853531 -5.3094482 -6.4495697c-0.75512695 -2.6366272 -1.1326904 -11.864777 -1.1326904 -27.684479l0 -78.12501l40.776245 0l0 -40.887848l-40.776245 0l0 -68.45064z" fill-rule="evenodd"></path><path fill="#85200c" d="m1232.7899 -0.8843328l0 267.59637l59.677612 0l0 -97.10864c0 -16.306458 1.793335 -28.617432 5.380249 -36.932922c3.6339111 -8.356041 9.344482 -14.602798 17.131592 -18.740265c7.7871094 -4.137459 16.636108 -6.2061844 26.546997 -6.2061844c8.636597 0 15.810181 1.6225357 21.520752 4.8675995c5.7578125 3.204506 9.769287 7.544777 12.034668 13.020828c2.2653809 5.4760513 3.3980713 18.37519 3.3980713 38.697426l0 102.40216l59.677612 0l0 -113.71933c0 -17.401672 -1.0383301 -30.239967 -3.1148682 -38.514893c-2.029419 -8.274918 -5.852173 -15.819702 -11.468262 -22.634346c-5.569092 -6.814636 -13.875244 -12.412384 -24.918823 -16.79322c-11.043579 -4.380844 -23.432129 -6.571266 -37.16577 -6.571266c-26.7594 0 -49.766724 9.674362 -69.02222 29.023071l0 -98.38638z" fill-rule="evenodd"></path><path fill="#85200c" d="m643.23425 442.37164c-43.60785 0 -78.79144 12.331268 -105.55084 36.993744c-26.759369 24.621979 -40.139038 59.20224 -40.139038 103.74075c0 42.104736 13.308899 75.30585 39.926697 99.60327c26.617737 24.256897 60.5979 36.385315 101.94043 36.385315c33.41382 0 60.975464 -7.078247 82.68506 -21.234863c21.756714 -14.197144 37.307373 -35.89856 46.651917 -65.10419l-60.951904 -16.610657c-5.2386475 19.592041 -13.875244 33.951477 -25.909851 43.078247c-12.034668 9.12677 -26.405457 13.6901245 -43.112366 13.6901245c-22.653442 0 -41.059326 -7.1796875 -55.217712 -21.539124c-14.158386 -14.359436 -21.23761 -38.45404 -21.23761 -72.283875c0 -31.882812 7.173584 -54.943054 21.520752 -69.180786c14.394348 -14.237732 33.130676 -21.356598 56.208862 -21.356598c16.70691 0 30.888855 4.015747 42.54596 12.047302c11.704285 8.031525 19.397034 18.983612 23.078186 32.856293l62.226135 -12.777466c-7.0791626 -21.41742 -17.697998 -37.84558 -31.856384 -49.284424c-23.786072 -19.348724 -54.722168 -29.023071 -92.80829 -29.023071z" fill-rule="evenodd"></path><path fill="#85200c" d="m822.2672 446.935l0 267.59637l59.677612 0l0 -267.59637z" fill-rule="evenodd"></path><path fill="#85200c" d="m941.83484 520.67914l0 122.663574c0 18.253479 2.6901245 32.552063 8.0703125 42.895752c5.380188 10.343628 14.087585 18.375183 26.122253 24.094604c12.034607 5.7194214 25.626648 8.579163 40.776184 8.579163c14.866333 0 28.977417 -2.9814453 42.33362 -8.944214c13.403198 -5.9628296 24.210815 -14.116028 32.42273 -24.459717l0 29.023071l55.430054 0l0 -193.85223l-59.677612 0l0 81.775696c0 27.745361 -1.4865723 45.187622 -4.459839 52.32672c-2.9732666 7.098633 -8.495117 13.061462 -16.56543 17.888428c-8.07019 4.786499 -17.202393 7.1797485 -27.396484 7.1797485c-8.9198 0 -16.282104 -1.78479 -22.087036 -5.35437c-5.8049927 -3.6101074 -9.816528 -8.477722 -12.034668 -14.602783c-2.1709595 -6.1656494 -3.2564087 -22.877747 -3.2564087 -50.13629l0 -89.07715z" fill-rule="evenodd"></path><path fill="#85200c" d="m1315.4042 555.54333c14.58313 0 26.546997 4.908203 35.89148 14.724487c9.3446045 9.775818 14.016846 25.737488 14.016846 47.88507c0 20.80896 -4.6486816 36.06079 -13.946045 45.755432c-9.250122 9.654114 -20.458862 14.48114 -33.62622 14.48114c-17.131592 0 -30.865234 -6.814636 -41.200928 -20.44397c-7.3623047 -9.613464 -11.043457 -24.459656 -11.043457 -44.538513c0 -19.470398 4.743042 -33.9718 14.229126 -43.50421c9.486084 -9.572937 21.37915 -14.359436 35.6792 -14.359436zm-109.161255 -108.60834l0 267.59637l55.430054 0l0 -28.475464c9.061401 10.830444 19.845337 19.024231 32.35205 24.58136c12.553711 5.5166626 25.272705 8.274963 38.15686 8.274963c26.192993 0 48.445312 -8.944214 66.756836 -26.832642c18.358643 -17.888428 27.538086 -43.382507 27.538086 -76.48218c0 -32.004517 -8.990601 -56.545288 -26.971802 -73.6225c-17.981201 -17.117737 -40.705322 -25.676575 -68.17261 -25.676575c-25.202026 0 -47.00598 9.005066 -65.411865 27.015198l0 -96.37854z" fill-rule="evenodd"></path><path stroke="#000000" stroke-width="1.0" stroke-linejoin="round" stroke-linecap="butt" d="m483.52756 -0.8843328l0 267.59637l58.40341 0l0 -210.64543l61.58899 210.64543l60.52716 0l61.80139 -210.64543l0 210.64543l58.40338 0l0 -267.59637l-94.29492 0l-55.85486 182.53505l-56.492004 -182.53505z" fill-rule="evenodd"></path><path stroke="#000000" stroke-width="1.0" stroke-linejoin="round" stroke-linecap="butt" d="m970.71796 173.61917l0 10.221954c0 12.290695 -0.7786865 20.626465 -2.3361206 25.007309c-2.2653198 6.6929474 -7.008423 12.351532 -14.229187 16.975754c-9.769287 6.084503 -20.034119 9.126755 -30.794495 9.126755c-9.627747 0 -17.556396 -2.616333 -23.786133 -7.848999c-6.2296753 -5.2326813 -9.344543 -11.438873 -9.344543 -18.618576c0 -7.301407 3.8935547 -13.325058 11.680725 -18.070969c5.096985 -2.9205627 15.928162 -5.9019775 32.49347 -8.944229c16.565369 -3.0422516 28.670776 -5.6585846 36.316284 -7.848999zm-36.316284 -105.14019c-29.307861 0 -51.39496 4.502533 -66.26129 13.507599c-14.866272 9.005058 -25.343506 22.877724 -31.43164 41.61799l54.155884 8.396606c3.6812134 -9.005058 8.495056 -15.292374 14.441589 -18.861954c5.946472 -3.6101303 14.229187 -5.4151993 24.847961 -5.4151993c15.71582 0 26.405396 2.1092987 32.068787 6.327881c5.66333 4.1780243 8.494995 11.19548 8.494995 21.052376l0 5.110977c-10.760376 3.8940887 -30.086548 8.092392 -57.978638 12.594925c-20.671204 3.407318 -36.505005 7.4027863 -47.501404 11.986465c-10.949158 4.5430756 -19.467773 11.114349 -25.555908 19.713776c-6.0880737 8.558853 -9.132141 18.314362 -9.132141 29.266464c0 16.549835 6.6780396 30.23996 20.034119 41.070374c13.40332 10.830414 31.714783 16.245636 54.93457 16.245636c13.167297 0 25.555908 -2.1295776 37.16577 -6.388733c11.609924 -4.2591553 22.511902 -10.647888 32.705933 -19.166183c0.42474365 0.97351074 1.1326904 2.9813995 2.1237793 6.023651c2.2653198 6.6929474 4.176697 11.743088 5.734131 15.150406l59.040527 0c-5.2386475 -9.248444 -8.825439 -17.908722 -10.760376 -25.98082c-1.8878174 -8.112671 -2.831665 -20.687302 -2.831665 -37.723907l0.63708496 -59.87149c0 -22.26928 -2.666504 -37.561653 -7.9995117 -45.877144c-5.2857666 -8.356041 -14.441528 -15.231529 -27.467285 -20.626457c-13.025696 -5.435486 -32.847473 -8.153236 -59.46527 -8.153236z" fill-rule="evenodd"></path><path stroke="#000000" stroke-width="1.0" stroke-linejoin="round" stroke-linecap="butt" d="m1150.8127 4.4091835l-59.890015 29.93575l0 38.514893l-27.396484 0l0 40.887848l27.396484 0l0 84.513725c0 18.13182 0.63720703 30.179123 1.911377 36.141937c1.5574951 8.396622 4.341919 15.069275 8.353516 20.01802c4.058716 4.908142 10.406372 8.92392 19.042969 12.047302c8.636719 3.0827942 18.335205 4.624237 29.095581 4.624237c17.556396 0 33.272217 -2.5555115 47.14746 -7.6664734l-5.097046 -39.79265c-10.477173 3.2856293 -18.476685 4.9284363 -23.998535 4.9284363c-3.9642334 0 -7.338745 -0.8518219 -10.123169 -2.555481c-2.7373047 -1.703659 -4.50708 -3.853531 -5.3094482 -6.4495697c-0.75512695 -2.6366272 -1.1326904 -11.864777 -1.1326904 -27.684479l0 -78.12501l40.776245 0l0 -40.887848l-40.776245 0l0 -68.45064z" fill-rule="evenodd"></path><path stroke="#000000" stroke-width="1.0" stroke-linejoin="round" stroke-linecap="butt" d="m1232.7899 -0.8843328l0 267.59637l59.677612 0l0 -97.10864c0 -16.306458 1.793335 -28.617432 5.380249 -36.932922c3.6339111 -8.356041 9.344482 -14.602798 17.131592 -18.740265c7.7871094 -4.137459 16.636108 -6.2061844 26.546997 -6.2061844c8.636597 0 15.810181 1.6225357 21.520752 4.8675995c5.7578125 3.204506 9.769287 7.544777 12.034668 13.020828c2.2653809 5.4760513 3.3980713 18.37519 3.3980713 38.697426l0 102.40216l59.677612 0l0 -113.71933c0 -17.401672 -1.0383301 -30.239967 -3.1148682 -38.514893c-2.029419 -8.274918 -5.852173 -15.819702 -11.468262 -22.634346c-5.569092 -6.814636 -13.875244 -12.412384 -24.918823 -16.79322c-11.043579 -4.380844 -23.432129 -6.571266 -37.16577 -6.571266c-26.7594 0 -49.766724 9.674362 -69.02222 29.023071l0 -98.38638z" fill-rule="evenodd"></path><path stroke="#000000" stroke-width="1.0" stroke-linejoin="round" stroke-linecap="butt" d="m643.23425 442.37164c-43.60785 0 -78.79144 12.331268 -105.55084 36.993744c-26.759369 24.621979 -40.139038 59.20224 -40.139038 103.74075c0 42.104736 13.308899 75.30585 39.926697 99.60327c26.617737 24.256897 60.5979 36.385315 101.94043 36.385315c33.41382 0 60.975464 -7.078247 82.68506 -21.234863c21.756714 -14.197144 37.307373 -35.89856 46.651917 -65.10419l-60.951904 -16.610657c-5.2386475 19.592041 -13.875244 33.951477 -25.909851 43.078247c-12.034668 9.12677 -26.405457 13.6901245 -43.112366 13.6901245c-22.653442 0 -41.059326 -7.1796875 -55.217712 -21.539124c-14.158386 -14.359436 -21.23761 -38.45404 -21.23761 -72.283875c0 -31.882812 7.173584 -54.943054 21.520752 -69.180786c14.394348 -14.237732 33.130676 -21.356598 56.208862 -21.356598c16.70691 0 30.888855 4.015747 42.54596 12.047302c11.704285 8.031525 19.397034 18.983612 23.078186 32.856293l62.226135 -12.777466c-7.0791626 -21.41742 -17.697998 -37.84558 -31.856384 -49.284424c-23.786072 -19.348724 -54.722168 -29.023071 -92.80829 -29.023071z" fill-rule="evenodd"></path><path stroke="#000000" stroke-width="1.0" stroke-linejoin="round" stroke-linecap="butt" d="m822.2672 446.935l0 267.59637l59.677612 0l0 -267.59637z" fill-rule="evenodd"></path><path stroke="#000000" stroke-width="1.0" stroke-linejoin="round" stroke-linecap="butt" d="m941.83484 520.67914l0 122.663574c0 18.253479 2.6901245 32.552063 8.0703125 42.895752c5.380188 10.343628 14.087585 18.375183 26.122253 24.094604c12.034607 5.7194214 25.626648 8.579163 40.776184 8.579163c14.866333 0 28.977417 -2.9814453 42.33362 -8.944214c13.403198 -5.9628296 24.210815 -14.116028 32.42273 -24.459717l0 29.023071l55.430054 0l0 -193.85223l-59.677612 0l0 81.775696c0 27.745361 -1.4865723 45.187622 -4.459839 52.32672c-2.9732666 7.098633 -8.495117 13.061462 -16.56543 17.888428c-8.07019 4.786499 -17.202393 7.1797485 -27.396484 7.1797485c-8.9198 0 -16.282104 -1.78479 -22.087036 -5.35437c-5.8049927 -3.6101074 -9.816528 -8.477722 -12.034668 -14.602783c-2.1709595 -6.1656494 -3.2564087 -22.877747 -3.2564087 -50.13629l0 -89.07715z" fill-rule="evenodd"></path><path stroke="#000000" stroke-width="1.0" stroke-linejoin="round" stroke-linecap="butt" d="m1315.4042 555.54333c14.58313 0 26.546997 4.908203 35.89148 14.724487c9.3446045 9.775818 14.016846 25.737488 14.016846 47.88507c0 20.80896 -4.6486816 36.06079 -13.946045 45.755432c-9.250122 9.654114 -20.458862 14.48114 -33.62622 14.48114c-17.131592 0 -30.865234 -6.814636 -41.200928 -20.44397c-7.3623047 -9.613464 -11.043457 -24.459656 -11.043457 -44.538513c0 -19.470398 4.743042 -33.9718 14.229126 -43.50421c9.486084 -9.572937 21.37915 -14.359436 35.6792 -14.359436zm-109.161255 -108.60834l0 267.59637l55.430054 0l0 -28.475464c9.061401 10.830444 19.845337 19.024231 32.35205 24.58136c12.553711 5.5166626 25.272705 8.274963 38.15686 8.274963c26.192993 0 48.445312 -8.944214 66.756836 -26.832642c18.358643 -17.888428 27.538086 -43.382507 27.538086 -76.48218c0 -32.004517 -8.990601 -56.545288 -26.971802 -73.6225c-17.981201 -17.117737 -40.705322 -25.676575 -68.17261 -25.676575c-25.202026 0 -47.00598 9.005066 -65.411865 27.015198l0 -96.37854z" fill-rule="evenodd"></path><path fill="#85200c" d="m43.62153 10.574804l0 63.582764l203.12271 280.49084l-208.84921 286.3041l0 67.94275l425.78293 0l0 -58.496155l-350.32773 0l218.61798 -298.65735l-204.47012 -281.5808l332.81134 0l0 -59.586136z" fill-rule="evenodd"></path><path stroke="#000000" stroke-width="1.0" stroke-linejoin="round" stroke-linecap="butt" d="m43.62153 10.574804l0 63.582764l203.12271 280.49084l-208.84921 286.3041l0 67.94275l425.78293 0l0 -58.496155l-350.32773 0l218.61798 -298.65735l-204.47012 -281.5808l332.81134 0l0 -59.586136z" fill-rule="evenodd"></path></g></svg>

