<?xml version="1.0" encoding="UTF-8"?>
<!DOCTYPE svg PUBLIC "-//W3C//DTD SVG 1.1//EN" "http://www.w3.org/Graphics/SVG/1.1/DTD/svg11.dtd">
<svg version="1.2" width="80mm" height="80mm" viewBox="0 0 8000 8000" preserveAspectRatio="xMidYMid" fill-rule="evenodd" stroke-width="28.222" stroke-linejoin="round" xmlns="http://www.w3.org/2000/svg" xmlns:ooo="http://xml.openoffice.org/svg/export" xmlns:xlink="http://www.w3.org/1999/xlink" xmlns:presentation="http://sun.com/xmlns/staroffice/presentation" xmlns:smil="http://www.w3.org/2001/SMIL20/" xmlns:anim="urn:oasis:names:tc:opendocument:xmlns:animation:1.0" xml:space="preserve">
 <defs class="ClipPathGroup">
  <clipPath id="presentation_clip_path" clipPathUnits="userSpaceOnUse">
   <rect x="0" y="0" width="8000" height="8000"/>
  </clipPath>
 </defs>
 <defs class="TextShapeIndex">
  <g ooo:slide="id1" ooo:id-list="id3"/>
 </defs>
 <defs class="EmbeddedBulletChars">
  <g id="bullet-char-template(57356)" transform="scale(0.00048828125,-0.00048828125)">
   <path d="M 580,1141 L 1163,571 580,0 -4,571 580,1141 Z"/>
  </g>
  <g id="bullet-char-template(57354)" transform="scale(0.00048828125,-0.00048828125)">
   <path d="M 8,1128 L 1137,1128 1137,0 8,0 8,1128 Z"/>
  </g>
  <g id="bullet-char-template(10146)" transform="scale(0.00048828125,-0.00048828125)">
   <path d="M 174,0 L 602,739 174,1481 1456,739 174,0 Z M 1358,739 L 309,1346 659,739 1358,739 Z"/>
  </g>
  <g id="bullet-char-template(10132)" transform="scale(0.00048828125,-0.00048828125)">
   <path d="M 2015,739 L 1276,0 717,0 1260,543 174,543 174,936 1260,936 717,1481 1274,1481 2015,739 Z"/>
  </g>
  <g id="bullet-char-template(10007)" transform="scale(0.00048828125,-0.00048828125)">
   <path d="M 0,-2 C -7,14 -16,27 -25,37 L 356,567 C 262,823 215,952 215,954 215,979 228,992 255,992 264,992 276,990 289,987 310,991 331,999 354,1012 L 381,999 492,748 772,1049 836,1024 860,1049 C 881,1039 901,1025 922,1006 886,937 835,863 770,784 769,783 710,716 594,584 L 774,223 C 774,196 753,168 711,139 L 727,119 C 717,90 699,76 672,76 641,76 570,178 457,381 L 164,-76 C 142,-110 111,-127 72,-127 30,-127 9,-110 8,-76 1,-67 -2,-52 -2,-32 -2,-23 -1,-13 0,-2 Z"/>
  </g>
  <g id="bullet-char-template(10004)" transform="scale(0.00048828125,-0.00048828125)">
   <path d="M 285,-33 C 182,-33 111,30 74,156 52,228 41,333 41,471 41,549 55,616 82,672 116,743 169,778 240,778 293,778 328,747 346,684 L 369,508 C 377,444 397,411 428,410 L 1163,1116 C 1174,1127 1196,1133 1229,1133 1271,1133 1292,1118 1292,1087 L 1292,965 C 1292,929 1282,901 1262,881 L 442,47 C 390,-6 338,-33 285,-33 Z"/>
  </g>
  <g id="bullet-char-template(9679)" transform="scale(0.00048828125,-0.00048828125)">
   <path d="M 813,0 C 632,0 489,54 383,161 276,268 223,411 223,592 223,773 276,916 383,1023 489,1130 632,1184 813,1184 992,1184 1136,1130 1245,1023 1353,916 1407,772 1407,592 1407,412 1353,268 1245,161 1136,54 992,0 813,0 Z"/>
  </g>
  <g id="bullet-char-template(8226)" transform="scale(0.00048828125,-0.00048828125)">
   <path d="M 346,457 C 273,457 209,483 155,535 101,586 74,649 74,723 74,796 101,859 155,911 209,963 273,989 346,989 419,989 480,963 531,910 582,859 608,796 608,723 608,648 583,586 532,535 482,483 420,457 346,457 Z"/>
  </g>
  <g id="bullet-char-template(8211)" transform="scale(0.00048828125,-0.00048828125)">
   <path d="M -4,459 L 1135,459 1135,606 -4,606 -4,459 Z"/>
  </g>
 </defs>
 <defs class="TextEmbeddedBitmaps"/>
 <g>
  <g id="id2" class="Master_Slide">
   <g id="bg-id2" class="Background"/>
   <g id="bo-id2" class="BackgroundObjects"/>
  </g>
 </g>
 <g class="SlideGroup">
  <g>
   <g id="id1" class="Slide" clip-path="url(#presentation_clip_path)">
    <g class="Page">
     <g class="com.sun.star.drawing.ClosedBezierShape">
      <g id="id3">
       <rect class="BoundingBox" stroke="none" fill="none" x="2083" y="2016" width="3827" height="3968"/>
       <path fill="rgb(0,0,0)" stroke="none" d="M 2375,5864 L 2234,5864 2093,5864 2093,2650 2083,2650 2083,2050 2104,2050 2102,2043 C 2182,2025 2257,2017 2326,2017 2431,2017 2526,2035 2613,2069 2698,2102 2776,2150 2847,2209 2977,2317 3087,2465 3187,2628 3279,2778 3363,2941 3454,3093 3511,3188 3569,3279 3634,3358 3699,3279 3758,3188 3814,3093 3905,2941 3989,2778 4081,2628 4182,2465 4291,2317 4421,2209 4492,2150 4570,2102 4655,2069 4742,2036 4837,2017 4942,2017 5012,2017 5086,2025 5166,2043 L 5164,2050 5177,2050 5177,2650 5175,2650 5175,2923 C 5412,2967 5630,3066 5829,3221 5840,3228 5850,3236 5859,3245 5860,3246 5862,3248 5864,3249 5893,3280 5908,3317 5908,3359 5908,3401 5893,3438 5863,3468 5832,3498 5796,3513 5754,3513 5711,3513 5675,3498 5644,3467 5503,3354 5347,3277 5175,3237 L 5175,4439 5744,4439 C 5785,4439 5821,4454 5852,4484 5882,4515 5896,4551 5896,4594 L 5896,5531 C 5896,5574 5882,5610 5852,5640 5565,5869 5242,5983 4882,5983 4456,5983 4092,5832 3791,5531 3489,5229 3338,4865 3338,4440 3338,4151 3408,3891 3546,3659 L 3539,3667 C 3414,3553 3309,3401 3212,3237 3122,3086 3038,2924 2946,2775 2863,2640 2775,2516 2667,2426 2619,2387 2568,2354 2511,2332 2469,2316 2424,2305 2375,2301 L 2375,5864 Z M 4893,3205 C 4889,3205 4885,3205 4882,3205 4541,3205 4250,3325 4009,3566 3768,3808 3647,4099 3647,4440 3647,4780 3768,5071 4009,5313 4250,5554 4541,5674 4882,5674 4885,5674 4889,5674 4893,5674 L 4893,4741 4300,4741 4300,4739 C 4293,4740 4287,4740 4280,4740 4195,4740 4130,4679 4130,4600 4130,4521 4195,4460 4280,4460 4287,4460 4293,4460 4300,4461 L 4300,4459 4893,4459 4893,3205 Z M 4893,2896 L 4893,2881 C 4892,2884 4890,2887 4888,2890 4888,2892 4888,2894 4888,2896 4890,2896 4891,2896 4893,2896 Z"/>
      </g>
     </g>
    </g>
   </g>
  </g>
 </g>
</svg>