<?xml version="1.0" encoding="UTF-8"?>
<svg xmlns="http://www.w3.org/2000/svg" xmlns:xlink="http://www.w3.org/1999/xlink" width="1478pt" height="400pt" viewBox="0 0 1478 400" version="1.1">
<g id="surface56">
<path style="fill-rule:nonzero;fill:rgb(86.997986%,93.998718%,99.998474%);fill-opacity:1;stroke-width:0.03;stroke-linecap:square;stroke-linejoin:miter;stroke:rgb(86.997986%,93.998718%,99.998474%);stroke-opacity:1;stroke-miterlimit:3.239307;" d="M 18.160966 0.954333 L 1882.160966 0.954333 L 1882.160966 -1900.045667 L 18.160966 -1900.045667 Z M 18.160966 0.954333 " transform="matrix(1,0,0,1,-405.160966,1565.045667)"/>
<path style="fill:none;stroke-width:1;stroke-linecap:butt;stroke-linejoin:miter;stroke:rgb(50%,50%,50%);stroke-opacity:0.7;stroke-miterlimit:3.25;" d="M 1066.480469 -9.765625 L 1029.175781 249.023438 " transform="matrix(1,0,0,1,-65,-4)"/>
<path style="fill:none;stroke-width:1;stroke-linecap:butt;stroke-linejoin:miter;stroke:rgb(50%,50%,50%);stroke-opacity:0.7;stroke-miterlimit:3.25;" d="M 1067.078125 -9.71875 L 1063.824219 139.046875 " transform="matrix(1,0,0,1,-65,-4)"/>
<path style="fill:none;stroke-width:1;stroke-linecap:butt;stroke-linejoin:miter;stroke:rgb(50%,50%,50%);stroke-opacity:0.7;stroke-miterlimit:3.25;" d="M 728.308594 456.664062 L 850.734375 263.75 " transform="matrix(1,0,0,1,-65,-4)"/>
<path style="fill:none;stroke-width:1;stroke-linecap:butt;stroke-linejoin:miter;stroke:rgb(50%,50%,50%);stroke-opacity:0.7;stroke-miterlimit:3.25;" d="M 721.007812 459.160156 L 453.425781 362.558594 " transform="matrix(1,0,0,1,-65,-4)"/>
<path style="fill:none;stroke-width:1;stroke-linecap:butt;stroke-linejoin:miter;stroke:rgb(50%,50%,50%);stroke-opacity:0.7;stroke-miterlimit:3.25;" d="M 729.230469 457.421875 L 788.507812 400.722656 " transform="matrix(1,0,0,1,-65,-4)"/>
<path style="fill:none;stroke-width:1;stroke-linecap:butt;stroke-linejoin:miter;stroke:rgb(50%,50%,50%);stroke-opacity:0.7;stroke-miterlimit:3.25;" d="M 1099.878906 104.316406 L 860.957031 215.621094 " transform="matrix(1,0,0,1,-65,-4)"/>
<path style="fill:none;stroke-width:1;stroke-linecap:butt;stroke-linejoin:miter;stroke:rgb(50%,50%,50%);stroke-opacity:0.7;stroke-miterlimit:3.25;" d="M 1103.019531 106.988281 L 1071.261719 219.9375 " transform="matrix(1,0,0,1,-65,-4)"/>
<path style="fill:none;stroke-width:1;stroke-linecap:butt;stroke-linejoin:miter;stroke:rgb(50%,50%,50%);stroke-opacity:0.7;stroke-miterlimit:3.25;" d="M 647.898438 436.6875 L 707.628906 252.570312 " transform="matrix(1,0,0,1,-65,-4)"/>
<path style="fill:none;stroke-width:1;stroke-linecap:butt;stroke-linejoin:miter;stroke:rgb(50%,50%,50%);stroke-opacity:0.7;stroke-miterlimit:3.25;" d="M 646.757812 436.460938 L 667.8125 166.738281 " transform="matrix(1,0,0,1,-65,-4)"/>
<path style="fill:none;stroke-width:1;stroke-linecap:butt;stroke-linejoin:miter;stroke:rgb(50%,50%,50%);stroke-opacity:0.7;stroke-miterlimit:3.25;" d="M 649.757812 437.789062 L 853.085938 221.3125 " transform="matrix(1,0,0,1,-65,-4)"/>
<path style="fill:none;stroke-width:1;stroke-linecap:butt;stroke-linejoin:miter;stroke:rgb(50%,50%,50%);stroke-opacity:0.7;stroke-miterlimit:3.25;" d="M 364.285156 551.917969 L 156.664062 359.046875 " transform="matrix(1,0,0,1,-65,-4)"/>
<path style="fill:none;stroke-width:1;stroke-linecap:butt;stroke-linejoin:miter;stroke:rgb(50%,50%,50%);stroke-opacity:0.7;stroke-miterlimit:3.25;" d="M 419.507812 478.792969 L 157.53125 357.757812 " transform="matrix(1,0,0,1,-65,-4)"/>
<path style="fill:none;stroke-width:1;stroke-linecap:butt;stroke-linejoin:miter;stroke:rgb(50%,50%,50%);stroke-opacity:0.7;stroke-miterlimit:3.25;" d="M 551.933594 598.824219 L 592.53125 352.386719 " transform="matrix(1,0,0,1,-65,-4)"/>
<path style="fill:none;stroke-width:1;stroke-linecap:butt;stroke-linejoin:miter;stroke:rgb(50%,50%,50%);stroke-opacity:0.7;stroke-miterlimit:3.25;" d="M 316.570312 660.171875 L 207.90625 405.300781 " transform="matrix(1,0,0,1,-65,-4)"/>
<path style="fill:none;stroke-width:1;stroke-linecap:butt;stroke-linejoin:miter;stroke:rgb(50%,50%,50%);stroke-opacity:0.7;stroke-miterlimit:3.25;" d="M 1026.5 467.582031 L 905.019531 368.503906 " transform="matrix(1,0,0,1,-65,-4)"/>
<path style="fill:none;stroke-width:1;stroke-linecap:butt;stroke-linejoin:miter;stroke:rgb(50%,50%,50%);stroke-opacity:0.7;stroke-miterlimit:3.25;" d="M 1025.957031 468.402344 L 818.613281 359.085938 " transform="matrix(1,0,0,1,-65,-4)"/>
<path style="fill:none;stroke-width:1;stroke-linecap:butt;stroke-linejoin:miter;stroke:rgb(50%,50%,50%);stroke-opacity:0.7;stroke-miterlimit:3.25;" d="M 826.972656 429.382812 L 1024.742188 257.167969 " transform="matrix(1,0,0,1,-65,-4)"/>
<path style="fill:none;stroke-width:1;stroke-linecap:butt;stroke-linejoin:miter;stroke:rgb(50%,50%,50%);stroke-opacity:0.7;stroke-miterlimit:3.25;" d="M 818.742188 430.578125 L 531.210938 299.566406 " transform="matrix(1,0,0,1,-65,-4)"/>
<path style="fill:none;stroke-width:1;stroke-linecap:butt;stroke-linejoin:miter;stroke:rgb(50%,50%,50%);stroke-opacity:0.7;stroke-miterlimit:3.25;" d="M 827.839844 430.804688 L 1090.953125 326.445312 " transform="matrix(1,0,0,1,-65,-4)"/>
<path style="fill:none;stroke-width:1;stroke-linecap:butt;stroke-linejoin:miter;stroke:rgb(50%,50%,50%);stroke-opacity:0.7;stroke-miterlimit:3.25;" d="M 404.765625 295.441406 L 475.707031 337.398438 " transform="matrix(1,0,0,1,-65,-4)"/>
<path style="fill:none;stroke-width:1;stroke-linecap:butt;stroke-linejoin:miter;stroke:rgb(50%,50%,50%);stroke-opacity:0.7;stroke-miterlimit:3.25;" d="M 402.917969 297.242188 L 527.933594 521.3125 " transform="matrix(1,0,0,1,-65,-4)"/>
<path style="fill:none;stroke-width:1;stroke-linecap:butt;stroke-linejoin:miter;stroke:rgb(50%,50%,50%);stroke-opacity:0.7;stroke-miterlimit:3.25;" d="M 403.5625 296.8125 L 518.519531 443.175781 " transform="matrix(1,0,0,1,-65,-4)"/>
<path style="fill:none;stroke-width:1;stroke-linecap:butt;stroke-linejoin:miter;stroke:rgb(50%,50%,50%);stroke-opacity:0.7;stroke-miterlimit:3.25;" d="M 395.5625 293.015625 L 206.328125 296.496094 " transform="matrix(1,0,0,1,-65,-4)"/>
<path style="fill:none;stroke-width:1;stroke-linecap:butt;stroke-linejoin:miter;stroke:rgb(50%,50%,50%);stroke-opacity:0.7;stroke-miterlimit:3.25;" d="M 401.6875 288.121094 L 445.367188 110.375 " transform="matrix(1,0,0,1,-65,-4)"/>
<path style="fill:none;stroke-width:1;stroke-linecap:butt;stroke-linejoin:miter;stroke:rgb(50%,50%,50%);stroke-opacity:0.7;stroke-miterlimit:3.25;" d="M 402.164062 288.261719 L 444.933594 167.796875 " transform="matrix(1,0,0,1,-65,-4)"/>
<path style="fill:none;stroke-width:1;stroke-linecap:butt;stroke-linejoin:miter;stroke:rgb(50%,50%,50%);stroke-opacity:0.7;stroke-miterlimit:3.25;" d="M 477.789062 344.359375 L 340.519531 624.6875 " transform="matrix(1,0,0,1,-65,-4)"/>
<path style="fill:none;stroke-width:1;stroke-linecap:butt;stroke-linejoin:miter;stroke:rgb(50%,50%,50%);stroke-opacity:0.7;stroke-miterlimit:3.25;" d="M 477.914062 335.417969 L 412.121094 190.835938 " transform="matrix(1,0,0,1,-65,-4)"/>
<path style="fill:none;stroke-width:1;stroke-linecap:butt;stroke-linejoin:miter;stroke:rgb(50%,50%,50%);stroke-opacity:0.7;stroke-miterlimit:3.25;" d="M 484.894531 339.578125 L 521.734375 337.058594 " transform="matrix(1,0,0,1,-65,-4)"/>
<path style="fill:none;stroke-width:1;stroke-linecap:butt;stroke-linejoin:miter;stroke:rgb(50%,50%,50%);stroke-opacity:0.7;stroke-miterlimit:3.25;" d="M 481.347656 335.171875 L 525.695312 183.164062 " transform="matrix(1,0,0,1,-65,-4)"/>
<path style="fill:none;stroke-width:1;stroke-linecap:butt;stroke-linejoin:miter;stroke:rgb(50%,50%,50%);stroke-opacity:0.7;stroke-miterlimit:3.25;" d="M 484.300781 337.542969 L 687.5625 226.230469 " transform="matrix(1,0,0,1,-65,-4)"/>
<path style="fill:none;stroke-width:1;stroke-linecap:butt;stroke-linejoin:miter;stroke:rgb(50%,50%,50%);stroke-opacity:0.7;stroke-miterlimit:3.25;" d="M 483.089844 343.75 L 622.585938 514.675781 " transform="matrix(1,0,0,1,-65,-4)"/>
<path style="fill:none;stroke-width:1;stroke-linecap:butt;stroke-linejoin:miter;stroke:rgb(50%,50%,50%);stroke-opacity:0.7;stroke-miterlimit:3.25;" d="M 536.316406 99.035156 L 526.949219 292.578125 " transform="matrix(1,0,0,1,-65,-4)"/>
<path style="fill:none;stroke-width:1;stroke-linecap:butt;stroke-linejoin:miter;stroke:rgb(50%,50%,50%);stroke-opacity:0.7;stroke-miterlimit:3.25;" d="M 541.34375 92.859375 L 677.679688 57.644531 " transform="matrix(1,0,0,1,-65,-4)"/>
<path style="fill:none;stroke-width:1;stroke-linecap:butt;stroke-linejoin:miter;stroke:rgb(50%,50%,50%);stroke-opacity:0.7;stroke-miterlimit:3.25;" d="M 541.496094 93.921875 L 654.953125 89.882812 " transform="matrix(1,0,0,1,-65,-4)"/>
<path style="fill:none;stroke-width:1;stroke-linecap:butt;stroke-linejoin:miter;stroke:rgb(50%,50%,50%);stroke-opacity:0.7;stroke-miterlimit:3.25;" d="M 533.675781 98.117188 L 426.929688 247.292969 " transform="matrix(1,0,0,1,-65,-4)"/>
<path style="fill:none;stroke-width:1;stroke-linecap:butt;stroke-linejoin:miter;stroke:rgb(50%,50%,50%);stroke-opacity:0.7;stroke-miterlimit:3.25;" d="M 686.945312 329.542969 L 427.933594 396.101562 " transform="matrix(1,0,0,1,-65,-4)"/>
<path style="fill:none;stroke-width:1;stroke-linecap:butt;stroke-linejoin:miter;stroke:rgb(50%,50%,50%);stroke-opacity:0.7;stroke-miterlimit:3.25;" d="M 696.679688 328.3125 L 931.246094 328.449219 " transform="matrix(1,0,0,1,-65,-4)"/>
<path style="fill:none;stroke-width:1;stroke-linecap:butt;stroke-linejoin:miter;stroke:rgb(50%,50%,50%);stroke-opacity:0.7;stroke-miterlimit:3.25;" d="M 686.832031 328.96875 L 453.675781 360.222656 " transform="matrix(1,0,0,1,-65,-4)"/>
<path style="fill:none;stroke-width:1;stroke-linecap:butt;stroke-linejoin:miter;stroke:rgb(50%,50%,50%);stroke-opacity:0.7;stroke-miterlimit:3.25;" d="M 693.828125 332.789062 L 779.601562 516.195312 " transform="matrix(1,0,0,1,-65,-4)"/>
<path style="fill:none;stroke-width:1;stroke-linecap:butt;stroke-linejoin:miter;stroke:rgb(50%,50%,50%);stroke-opacity:0.7;stroke-miterlimit:3.25;" d="M 695.839844 325.554688 L 852.367188 220.464844 " transform="matrix(1,0,0,1,-65,-4)"/>
<path style="fill:none;stroke-width:1;stroke-linecap:butt;stroke-linejoin:miter;stroke:rgb(50%,50%,50%);stroke-opacity:0.7;stroke-miterlimit:3.25;" d="M 689.460938 323.917969 L 628.917969 206.867188 " transform="matrix(1,0,0,1,-65,-4)"/>
<path style="fill:none;stroke-width:1;stroke-linecap:butt;stroke-linejoin:miter;stroke:rgb(50%,50%,50%);stroke-opacity:0.7;stroke-miterlimit:3.25;" d="M 1024.75 257.175781 L 904.910156 362.121094 " transform="matrix(1,0,0,1,-65,-4)"/>
<path style="fill:none;stroke-width:1;stroke-linecap:butt;stroke-linejoin:miter;stroke:rgb(50%,50%,50%);stroke-opacity:0.7;stroke-miterlimit:3.25;" d="M 1027.679688 258.800781 L 999.460938 432.75 " transform="matrix(1,0,0,1,-65,-4)"/>
<path style="fill:none;stroke-width:1;stroke-linecap:butt;stroke-linejoin:miter;stroke:rgb(50%,50%,50%);stroke-opacity:0.7;stroke-miterlimit:3.25;" d="M 328.625 471.28125 L 422.082031 255.847656 " transform="matrix(1,0,0,1,-65,-4)"/>
<path style="fill:none;stroke-width:1;stroke-linecap:butt;stroke-linejoin:miter;stroke:rgb(50%,50%,50%);stroke-opacity:0.7;stroke-miterlimit:3.25;" d="M 1284.84375 6.355469 L 1067.914062 141.378906 " transform="matrix(1,0,0,1,-65,-4)"/>
<path style="fill:none;stroke-width:1;stroke-linecap:butt;stroke-linejoin:miter;stroke:rgb(50%,50%,50%);stroke-opacity:0.7;stroke-miterlimit:3.25;" d="M 149.242188 358.851562 L -49.539062 524.582031 " transform="matrix(1,0,0,1,-65,-4)"/>
<path style="fill:none;stroke-width:1;stroke-linecap:butt;stroke-linejoin:miter;stroke:rgb(50%,50%,50%);stroke-opacity:0.7;stroke-miterlimit:3.25;" d="M 148.394531 357.375 L -105.839844 449.851562 " transform="matrix(1,0,0,1,-65,-4)"/>
<path style="fill:none;stroke-width:1;stroke-linecap:butt;stroke-linejoin:miter;stroke:rgb(50%,50%,50%);stroke-opacity:0.7;stroke-miterlimit:3.25;" d="M 154.925781 351.113281 L 299.269531 1.242188 " transform="matrix(1,0,0,1,-65,-4)"/>
<path style="fill:none;stroke-width:1;stroke-linecap:butt;stroke-linejoin:miter;stroke:rgb(50%,50%,50%);stroke-opacity:0.7;stroke-miterlimit:3.25;" d="M 1058.972656 145.378906 L 713.902344 246.476562 " transform="matrix(1,0,0,1,-65,-4)"/>
<path style="fill:none;stroke-width:1;stroke-linecap:butt;stroke-linejoin:miter;stroke:rgb(50%,50%,50%);stroke-opacity:0.7;stroke-miterlimit:3.25;" d="M 1063.882812 148.933594 L 1072.582031 404.539062 " transform="matrix(1,0,0,1,-65,-4)"/>
<path style="fill:none;stroke-width:1;stroke-linecap:butt;stroke-linejoin:miter;stroke:rgb(50%,50%,50%);stroke-opacity:0.7;stroke-miterlimit:3.25;" d="M 423.960938 443.289062 L 238.445312 352.820312 " transform="matrix(1,0,0,1,-65,-4)"/>
<path style="fill:none;stroke-width:1;stroke-linecap:butt;stroke-linejoin:miter;stroke:rgb(50%,50%,50%);stroke-opacity:0.7;stroke-miterlimit:3.25;" d="M 431.144531 441.339844 L 523.972656 301.632812 " transform="matrix(1,0,0,1,-65,-4)"/>
<path style="fill:none;stroke-width:1;stroke-linecap:butt;stroke-linejoin:miter;stroke:rgb(50%,50%,50%);stroke-opacity:0.7;stroke-miterlimit:3.25;" d="M 705.496094 244.542969 L 405.074219 -28.378906 " transform="matrix(1,0,0,1,-65,-4)"/>
<path style="fill:none;stroke-width:1;stroke-linecap:butt;stroke-linejoin:miter;stroke:rgb(50%,50%,50%);stroke-opacity:0.7;stroke-miterlimit:3.25;" d="M 713.304688 250.554688 L 852.652344 340.792969 " transform="matrix(1,0,0,1,-65,-4)"/>
<path style="fill:none;stroke-width:1;stroke-linecap:butt;stroke-linejoin:miter;stroke:rgb(50%,50%,50%);stroke-opacity:0.7;stroke-miterlimit:3.25;" d="M 707.644531 243.160156 L 644.589844 46.605469 " transform="matrix(1,0,0,1,-65,-4)"/>
<path style="fill:none;stroke-width:1;stroke-linecap:butt;stroke-linejoin:miter;stroke:rgb(50%,50%,50%);stroke-opacity:0.7;stroke-miterlimit:3.25;" d="M 706.667969 252.140625 L 533.074219 550.316406 " transform="matrix(1,0,0,1,-65,-4)"/>
<path style="fill:none;stroke-width:1;stroke-linecap:butt;stroke-linejoin:miter;stroke:rgb(50%,50%,50%);stroke-opacity:0.7;stroke-miterlimit:3.25;" d="M 708.421875 252.757812 L 673.546875 484.734375 " transform="matrix(1,0,0,1,-65,-4)"/>
<path style="fill:none;stroke-width:1;stroke-linecap:butt;stroke-linejoin:miter;stroke:rgb(50%,50%,50%);stroke-opacity:0.7;stroke-miterlimit:3.25;" d="M 706.355469 251.941406 L 589.792969 421.472656 " transform="matrix(1,0,0,1,-65,-4)"/>
<path style="fill:none;stroke-width:1;stroke-linecap:butt;stroke-linejoin:miter;stroke:rgb(50%,50%,50%);stroke-opacity:0.7;stroke-miterlimit:3.25;" d="M 713.886719 246.433594 L 948.476562 175.445312 " transform="matrix(1,0,0,1,-65,-4)"/>
<path style="fill:none;stroke-width:1;stroke-linecap:butt;stroke-linejoin:miter;stroke:rgb(50%,50%,50%);stroke-opacity:0.7;stroke-miterlimit:3.25;" d="M 771.347656 36.046875 L 687.285156 55.300781 " transform="matrix(1,0,0,1,-65,-4)"/>
<path style="fill:none;stroke-width:1;stroke-linecap:butt;stroke-linejoin:miter;stroke:rgb(50%,50%,50%);stroke-opacity:0.7;stroke-miterlimit:3.25;" d="M 771.882812 37.410156 L 531.367188 175.949219 " transform="matrix(1,0,0,1,-65,-4)"/>
<path style="fill:none;stroke-width:1;stroke-linecap:butt;stroke-linejoin:miter;stroke:rgb(50%,50%,50%);stroke-opacity:0.7;stroke-miterlimit:3.25;" d="M 780.058594 37.996094 L 949.320312 170.960938 " transform="matrix(1,0,0,1,-65,-4)"/>
<path style="fill:none;stroke-width:1;stroke-linecap:butt;stroke-linejoin:miter;stroke:rgb(50%,50%,50%);stroke-opacity:0.7;stroke-miterlimit:3.25;" d="M -81.914062 364.433594 L 229.0625 350.867188 " transform="matrix(1,0,0,1,-65,-4)"/>
<path style="fill:none;stroke-width:1;stroke-linecap:butt;stroke-linejoin:miter;stroke:rgb(50%,50%,50%);stroke-opacity:0.7;stroke-miterlimit:3.25;" d="M -81.910156 364.589844 L 115.152344 362.089844 " transform="matrix(1,0,0,1,-65,-4)"/>
<path style="fill:none;stroke-width:1;stroke-linecap:butt;stroke-linejoin:miter;stroke:rgb(50%,50%,50%);stroke-opacity:0.7;stroke-miterlimit:3.25;" d="M 592.113281 773.839844 L 789.761719 401.671875 " transform="matrix(1,0,0,1,-65,-4)"/>
<path style="fill:none;stroke-width:1;stroke-linecap:butt;stroke-linejoin:miter;stroke:rgb(50%,50%,50%);stroke-opacity:0.7;stroke-miterlimit:3.25;" d="M 315.773438 606.191406 L 493.285156 365.453125 " transform="matrix(1,0,0,1,-65,-4)"/>
<path style="fill:none;stroke-width:1;stroke-linecap:butt;stroke-linejoin:miter;stroke:rgb(50%,50%,50%);stroke-opacity:0.7;stroke-miterlimit:3.25;" d="M 398.378906 -27.800781 L 228.9375 190.257812 " transform="matrix(1,0,0,1,-65,-4)"/>
<path style="fill:none;stroke-width:1;stroke-linecap:butt;stroke-linejoin:miter;stroke:rgb(50%,50%,50%);stroke-opacity:0.7;stroke-miterlimit:3.25;" d="M 238.941406 350.417969 L 521.726562 336.953125 " transform="matrix(1,0,0,1,-65,-4)"/>
<path style="fill:none;stroke-width:1;stroke-linecap:butt;stroke-linejoin:miter;stroke:rgb(50%,50%,50%);stroke-opacity:0.7;stroke-miterlimit:3.25;" d="M 238.800781 351.835938 L 418.34375 396.148438 " transform="matrix(1,0,0,1,-65,-4)"/>
<path style="fill:none;stroke-width:1;stroke-linecap:butt;stroke-linejoin:miter;stroke:rgb(50%,50%,50%);stroke-opacity:0.7;stroke-miterlimit:3.25;" d="M 260.953125 401.117188 L 358.121094 489.5 " transform="matrix(1,0,0,1,-65,-4)"/>
<path style="fill:none;stroke-width:1;stroke-linecap:butt;stroke-linejoin:miter;stroke:rgb(50%,50%,50%);stroke-opacity:0.7;stroke-miterlimit:3.25;" d="M 261.070312 394.597656 L 359.304688 311.539062 " transform="matrix(1,0,0,1,-65,-4)"/>
<path style="fill:none;stroke-width:1;stroke-linecap:butt;stroke-linejoin:miter;stroke:rgb(50%,50%,50%);stroke-opacity:0.7;stroke-miterlimit:3.25;" d="M 262.148438 396.855469 L 443.921875 361.816406 " transform="matrix(1,0,0,1,-65,-4)"/>
<path style="fill:none;stroke-width:1;stroke-linecap:butt;stroke-linejoin:miter;stroke:rgb(50%,50%,50%);stroke-opacity:0.7;stroke-miterlimit:3.25;" d="M 255.984375 402.558594 L 220.78125 530.671875 " transform="matrix(1,0,0,1,-65,-4)"/>
<path style="fill:none;stroke-width:1;stroke-linecap:butt;stroke-linejoin:miter;stroke:rgb(50%,50%,50%);stroke-opacity:0.7;stroke-miterlimit:3.25;" d="M 288.007812 520.535156 L 208.757812 404.832031 " transform="matrix(1,0,0,1,-65,-4)"/>
<path style="fill:none;stroke-width:1;stroke-linecap:butt;stroke-linejoin:miter;stroke:rgb(50%,50%,50%);stroke-opacity:0.7;stroke-miterlimit:3.25;" d="M 287.222656 521.203125 L 123.679688 365.4375 " transform="matrix(1,0,0,1,-65,-4)"/>
<path style="fill:none;stroke-width:1;stroke-linecap:butt;stroke-linejoin:miter;stroke:rgb(50%,50%,50%);stroke-opacity:0.7;stroke-miterlimit:3.25;" d="M 3.238281 311.324219 L 294.871094 236.269531 " transform="matrix(1,0,0,1,-65,-4)"/>
<path style="fill:none;stroke-width:1;stroke-linecap:butt;stroke-linejoin:miter;stroke:rgb(50%,50%,50%);stroke-opacity:0.7;stroke-miterlimit:3.25;" d="M 2.277344 315.683594 L 124.753906 415.75 " transform="matrix(1,0,0,1,-65,-4)"/>
<path style="fill:none;stroke-width:1;stroke-linecap:butt;stroke-linejoin:miter;stroke:rgb(50%,50%,50%);stroke-opacity:0.7;stroke-miterlimit:3.25;" d="M 362.375 581.621094 L 524.234375 301.796875 " transform="matrix(1,0,0,1,-65,-4)"/>
<path style="fill:none;stroke-width:1;stroke-linecap:butt;stroke-linejoin:miter;stroke:rgb(50%,50%,50%);stroke-opacity:0.7;stroke-miterlimit:3.25;" d="M 591.683594 352.167969 L 531.988281 520.96875 " transform="matrix(1,0,0,1,-65,-4)"/>
<path style="fill:none;stroke-width:1;stroke-linecap:butt;stroke-linejoin:miter;stroke:rgb(50%,50%,50%);stroke-opacity:0.7;stroke-miterlimit:3.25;" d="M 589.378906 344.539062 L 530.664062 300.484375 " transform="matrix(1,0,0,1,-65,-4)"/>
<path style="fill:none;stroke-width:1;stroke-linecap:butt;stroke-linejoin:miter;stroke:rgb(50%,50%,50%);stroke-opacity:0.7;stroke-miterlimit:3.25;" d="M 597.910156 345.636719 L 706.371094 301.339844 " transform="matrix(1,0,0,1,-65,-4)"/>
<path style="fill:none;stroke-width:1;stroke-linecap:butt;stroke-linejoin:miter;stroke:rgb(50%,50%,50%);stroke-opacity:0.7;stroke-miterlimit:3.25;" d="M 593.445312 342.5625 L 598.957031 102.019531 " transform="matrix(1,0,0,1,-65,-4)"/>
<path style="fill:none;stroke-width:1;stroke-linecap:butt;stroke-linejoin:miter;stroke:rgb(50%,50%,50%);stroke-opacity:0.7;stroke-miterlimit:3.25;" d="M 594.785156 352.234375 L 630.265625 467.828125 " transform="matrix(1,0,0,1,-65,-4)"/>
<path style="fill:none;stroke-width:1;stroke-linecap:butt;stroke-linejoin:miter;stroke:rgb(50%,50%,50%);stroke-opacity:0.7;stroke-miterlimit:3.25;" d="M 405.546875 188.332031 L 304.183594 233.039062 " transform="matrix(1,0,0,1,-65,-4)"/>
<path style="fill:none;stroke-width:1;stroke-linecap:butt;stroke-linejoin:miter;stroke:rgb(50%,50%,50%);stroke-opacity:0.7;stroke-miterlimit:3.25;" d="M 415.007812 186.003906 L 522.148438 178.75 " transform="matrix(1,0,0,1,-65,-4)"/>
<path style="fill:none;stroke-width:1;stroke-linecap:butt;stroke-linejoin:miter;stroke:rgb(50%,50%,50%);stroke-opacity:0.7;stroke-miterlimit:3.25;" d="M 410.992188 191.195312 L 469.808594 501.632812 " transform="matrix(1,0,0,1,-65,-4)"/>
<path style="fill:none;stroke-width:1;stroke-linecap:butt;stroke-linejoin:miter;stroke:rgb(50%,50%,50%);stroke-opacity:0.7;stroke-miterlimit:3.25;" d="M 413.480469 189.917969 L 593.125 378.597656 " transform="matrix(1,0,0,1,-65,-4)"/>
<path style="fill:none;stroke-width:1;stroke-linecap:butt;stroke-linejoin:miter;stroke:rgb(50%,50%,50%);stroke-opacity:0.7;stroke-miterlimit:3.25;" d="M 411.84375 181.71875 L 496.34375 -38.546875 " transform="matrix(1,0,0,1,-65,-4)"/>
<path style="fill:none;stroke-width:1;stroke-linecap:butt;stroke-linejoin:miter;stroke:rgb(50%,50%,50%);stroke-opacity:0.7;stroke-miterlimit:3.25;" d="M 405.621094 184.179688 L 250.078125 108.808594 " transform="matrix(1,0,0,1,-65,-4)"/>
<path style="fill:none;stroke-width:1;stroke-linecap:butt;stroke-linejoin:miter;stroke:rgb(50%,50%,50%);stroke-opacity:0.7;stroke-miterlimit:3.25;" d="M 414.761719 187.90625 L 546.851562 232.117188 " transform="matrix(1,0,0,1,-65,-4)"/>
<path style="fill:none;stroke-width:1;stroke-linecap:butt;stroke-linejoin:miter;stroke:rgb(50%,50%,50%);stroke-opacity:0.7;stroke-miterlimit:3.25;" d="M 407.113281 182.375 L 238.28125 -43.503906 " transform="matrix(1,0,0,1,-65,-4)"/>
<path style="fill:none;stroke-width:1;stroke-linecap:butt;stroke-linejoin:miter;stroke:rgb(50%,50%,50%);stroke-opacity:0.7;stroke-miterlimit:3.25;" d="M 521.792969 335.875 L 367.953125 309.191406 " transform="matrix(1,0,0,1,-65,-4)"/>
<path style="fill:none;stroke-width:1;stroke-linecap:butt;stroke-linejoin:miter;stroke:rgb(50%,50%,50%);stroke-opacity:0.7;stroke-miterlimit:3.25;" d="M 530.75 333.929688 L 687.816406 226.644531 " transform="matrix(1,0,0,1,-65,-4)"/>
<path style="fill:none;stroke-width:1;stroke-linecap:butt;stroke-linejoin:miter;stroke:rgb(50%,50%,50%);stroke-opacity:0.7;stroke-miterlimit:3.25;" d="M 529.03125 341.0625 L 623.347656 514.164062 " transform="matrix(1,0,0,1,-65,-4)"/>
<path style="fill:none;stroke-width:1;stroke-linecap:butt;stroke-linejoin:miter;stroke:rgb(50%,50%,50%);stroke-opacity:0.7;stroke-miterlimit:3.25;" d="M 530.675781 339.613281 L 777.6875 517.78125 " transform="matrix(1,0,0,1,-65,-4)"/>
<path style="fill:none;stroke-width:1;stroke-linecap:butt;stroke-linejoin:miter;stroke:rgb(50%,50%,50%);stroke-opacity:0.7;stroke-miterlimit:3.25;" d="M 524.59375 332.230469 L 448.65625 167.625 " transform="matrix(1,0,0,1,-65,-4)"/>
<path style="fill:none;stroke-width:1;stroke-linecap:butt;stroke-linejoin:miter;stroke:rgb(50%,50%,50%);stroke-opacity:0.7;stroke-miterlimit:3.25;" d="M 178.640625 464.722656 L 200.722656 301.488281 " transform="matrix(1,0,0,1,-65,-4)"/>
<path style="fill:none;stroke-width:1;stroke-linecap:butt;stroke-linejoin:miter;stroke:rgb(50%,50%,50%);stroke-opacity:0.7;stroke-miterlimit:3.25;" d="M 182.660156 468.035156 L 491.539062 363.066406 " transform="matrix(1,0,0,1,-65,-4)"/>
<path style="fill:none;stroke-width:1;stroke-linecap:butt;stroke-linejoin:miter;stroke:rgb(50%,50%,50%);stroke-opacity:0.7;stroke-miterlimit:3.25;" d="M 529.335938 520.789062 L 497.226562 366.316406 " transform="matrix(1,0,0,1,-65,-4)"/>
<path style="fill:none;stroke-width:1;stroke-linecap:butt;stroke-linejoin:miter;stroke:rgb(50%,50%,50%);stroke-opacity:0.7;stroke-miterlimit:3.25;" d="M 423.667969 402.25 L 446.832031 619.457031 " transform="matrix(1,0,0,1,-65,-4)"/>
<path style="fill:none;stroke-width:1;stroke-linecap:butt;stroke-linejoin:miter;stroke:rgb(50%,50%,50%);stroke-opacity:0.7;stroke-miterlimit:3.25;" d="M 377.148438 48.28125 L 524.164062 293.277344 " transform="matrix(1,0,0,1,-65,-4)"/>
<path style="fill:none;stroke-width:1;stroke-linecap:butt;stroke-linejoin:miter;stroke:rgb(50%,50%,50%);stroke-opacity:0.7;stroke-miterlimit:3.25;" d="M 370.449219 41.359375 L 305.308594 -0.652344 " transform="matrix(1,0,0,1,-65,-4)"/>
<path style="fill:none;stroke-width:1;stroke-linecap:butt;stroke-linejoin:miter;stroke:rgb(50%,50%,50%);stroke-opacity:0.7;stroke-miterlimit:3.25;" d="M 1070.511719 405.070312 L 955.449219 178.425781 " transform="matrix(1,0,0,1,-65,-4)"/>
<path style="fill:none;stroke-width:1;stroke-linecap:butt;stroke-linejoin:miter;stroke:rgb(50%,50%,50%);stroke-opacity:0.7;stroke-miterlimit:3.25;" d="M 528.757812 293.015625 L 641.03125 46.398438 " transform="matrix(1,0,0,1,-65,-4)"/>
<path style="fill:none;stroke-width:1;stroke-linecap:butt;stroke-linejoin:miter;stroke:rgb(50%,50%,50%);stroke-opacity:0.7;stroke-miterlimit:3.25;" d="M 525.339844 302.265625 L 445.578125 578.5625 " transform="matrix(1,0,0,1,-65,-4)"/>
<path style="fill:none;stroke-width:1;stroke-linecap:butt;stroke-linejoin:miter;stroke:rgb(50%,50%,50%);stroke-opacity:0.7;stroke-miterlimit:3.25;" d="M 530.292969 294.109375 L 623.0625 205.882812 " transform="matrix(1,0,0,1,-65,-4)"/>
<path style="fill:none;stroke-width:1;stroke-linecap:butt;stroke-linejoin:miter;stroke:rgb(50%,50%,50%);stroke-opacity:0.7;stroke-miterlimit:3.25;" d="M 739.089844 546.363281 L 554.085938 237.925781 " transform="matrix(1,0,0,1,-65,-4)"/>
<path style="fill:none;stroke-width:1;stroke-linecap:butt;stroke-linejoin:miter;stroke:rgb(50%,50%,50%);stroke-opacity:0.7;stroke-miterlimit:3.25;" d="M 251.359375 563.6875 L 62.695312 402.585938 " transform="matrix(1,0,0,1,-65,-4)"/>
<path style="fill:none;stroke-width:1;stroke-linecap:butt;stroke-linejoin:miter;stroke:rgb(50%,50%,50%);stroke-opacity:0.7;stroke-miterlimit:3.25;" d="M 682.003906 61.328125 L 656.074219 338.214844 " transform="matrix(1,0,0,1,-65,-4)"/>
<path style="fill:none;stroke-width:1;stroke-linecap:butt;stroke-linejoin:miter;stroke:rgb(50%,50%,50%);stroke-opacity:0.7;stroke-miterlimit:3.25;" d="M 678.011719 54.253906 L 582.507812 8.09375 " transform="matrix(1,0,0,1,-65,-4)"/>
<path style="fill:none;stroke-width:1;stroke-linecap:butt;stroke-linejoin:miter;stroke:rgb(50%,50%,50%);stroke-opacity:0.7;stroke-miterlimit:3.25;" d="M 1094.320312 319.832031 L 1071.148438 229.488281 " transform="matrix(1,0,0,1,-65,-4)"/>
<path style="fill:none;stroke-width:1;stroke-linecap:butt;stroke-linejoin:miter;stroke:rgb(50%,50%,50%);stroke-opacity:0.7;stroke-miterlimit:3.25;" d="M 771.121094 237.378906 L 853.695312 339.636719 " transform="matrix(1,0,0,1,-65,-4)"/>
<path style="fill:none;stroke-width:1;stroke-linecap:butt;stroke-linejoin:miter;stroke:rgb(50%,50%,50%);stroke-opacity:0.7;stroke-miterlimit:3.25;" d="M 767.898438 228.585938 L 761.875 -30.316406 " transform="matrix(1,0,0,1,-65,-4)"/>
<path style="fill:none;stroke-width:1;stroke-linecap:butt;stroke-linejoin:miter;stroke:rgb(50%,50%,50%);stroke-opacity:0.7;stroke-miterlimit:3.25;" d="M 764.277344 236.769531 L 600.273438 378.941406 " transform="matrix(1,0,0,1,-65,-4)"/>
<path style="fill:none;stroke-width:1;stroke-linecap:butt;stroke-linejoin:miter;stroke:rgb(50%,50%,50%);stroke-opacity:0.7;stroke-miterlimit:3.25;" d="M 771.527344 237.007812 L 897.675781 361.902344 " transform="matrix(1,0,0,1,-65,-4)"/>
<path style="fill:none;stroke-width:1;stroke-linecap:butt;stroke-linejoin:miter;stroke:rgb(50%,50%,50%);stroke-opacity:0.7;stroke-miterlimit:3.25;" d="M 763.183594 232.46875 L 631.472656 203.535156 " transform="matrix(1,0,0,1,-65,-4)"/>
<path style="fill:none;stroke-width:1;stroke-linecap:butt;stroke-linejoin:miter;stroke:rgb(50%,50%,50%);stroke-opacity:0.7;stroke-miterlimit:3.25;" d="M 766.019531 238.054688 L 672.398438 450.695312 " transform="matrix(1,0,0,1,-65,-4)"/>
<path style="fill:none;stroke-width:1;stroke-linecap:butt;stroke-linejoin:miter;stroke:rgb(50%,50%,50%);stroke-opacity:0.7;stroke-miterlimit:3.25;" d="M 853.792969 347.402344 L 648.054688 615.285156 " transform="matrix(1,0,0,1,-65,-4)"/>
<path style="fill:none;stroke-width:1;stroke-linecap:butt;stroke-linejoin:miter;stroke:rgb(50%,50%,50%);stroke-opacity:0.7;stroke-miterlimit:3.25;" d="M 861.121094 341.074219 L 1065.601562 227.105469 " transform="matrix(1,0,0,1,-65,-4)"/>
<path style="fill:none;stroke-width:1;stroke-linecap:butt;stroke-linejoin:miter;stroke:rgb(50%,50%,50%);stroke-opacity:0.7;stroke-miterlimit:3.25;" d="M 303.332031 238.347656 L 484.40625 401.542969 " transform="matrix(1,0,0,1,-65,-4)"/>
<path style="fill:none;stroke-width:1;stroke-linecap:butt;stroke-linejoin:miter;stroke:rgb(50%,50%,50%);stroke-opacity:0.7;stroke-miterlimit:3.25;" d="M 304.101562 232.863281 L 442.144531 165.308594 " transform="matrix(1,0,0,1,-65,-4)"/>
<path style="fill:none;stroke-width:1;stroke-linecap:butt;stroke-linejoin:miter;stroke:rgb(50%,50%,50%);stroke-opacity:0.7;stroke-miterlimit:3.25;" d="M 304.605469 235.011719 L 546.597656 233.714844 " transform="matrix(1,0,0,1,-65,-4)"/>
<path style="fill:none;stroke-width:1;stroke-linecap:butt;stroke-linejoin:miter;stroke:rgb(50%,50%,50%);stroke-opacity:0.7;stroke-miterlimit:3.25;" d="M 955.078125 504.726562 L 796.210938 400.023438 " transform="matrix(1,0,0,1,-65,-4)"/>
<path style="fill:none;stroke-width:1;stroke-linecap:butt;stroke-linejoin:miter;stroke:rgb(50%,50%,50%);stroke-opacity:0.7;stroke-miterlimit:3.25;" d="M 522.292969 177.179688 L 299.332031 119.554688 " transform="matrix(1,0,0,1,-65,-4)"/>
<path style="fill:none;stroke-width:1;stroke-linecap:butt;stroke-linejoin:miter;stroke:rgb(50%,50%,50%);stroke-opacity:0.7;stroke-miterlimit:3.25;" d="M 526.257812 183.292969 L 497.042969 356.597656 " transform="matrix(1,0,0,1,-65,-4)"/>
<path style="fill:none;stroke-width:1;stroke-linecap:butt;stroke-linejoin:miter;stroke:rgb(50%,50%,50%);stroke-opacity:0.7;stroke-miterlimit:3.25;" d="M 530.359375 174.714844 L 595.792969 100.78125 " transform="matrix(1,0,0,1,-65,-4)"/>
<path style="fill:none;stroke-width:1;stroke-linecap:butt;stroke-linejoin:miter;stroke:rgb(50%,50%,50%);stroke-opacity:0.7;stroke-miterlimit:3.25;" d="M 528.246094 183.222656 L 585.824219 420.738281 " transform="matrix(1,0,0,1,-65,-4)"/>
<path style="fill:none;stroke-width:1;stroke-linecap:butt;stroke-linejoin:miter;stroke:rgb(50%,50%,50%);stroke-opacity:0.7;stroke-miterlimit:3.25;" d="M 756.933594 -34.179688 L 582.878906 4.859375 " transform="matrix(1,0,0,1,-65,-4)"/>
<path style="fill:none;stroke-width:1;stroke-linecap:butt;stroke-linejoin:miter;stroke:rgb(50%,50%,50%);stroke-opacity:0.7;stroke-miterlimit:3.25;" d="M 937.21875 323.617188 L 1002.167969 17.480469 " transform="matrix(1,0,0,1,-65,-4)"/>
<path style="fill:none;stroke-width:1;stroke-linecap:butt;stroke-linejoin:miter;stroke:rgb(50%,50%,50%);stroke-opacity:0.7;stroke-miterlimit:3.25;" d="M 935.285156 333.316406 L 877.410156 643.988281 " transform="matrix(1,0,0,1,-65,-4)"/>
<path style="fill:none;stroke-width:1;stroke-linecap:butt;stroke-linejoin:miter;stroke:rgb(50%,50%,50%);stroke-opacity:0.7;stroke-miterlimit:3.25;" d="M 933.09375 332.308594 L 784.796875 516.820312 " transform="matrix(1,0,0,1,-65,-4)"/>
<path style="fill:none;stroke-width:1;stroke-linecap:butt;stroke-linejoin:miter;stroke:rgb(50%,50%,50%);stroke-opacity:0.7;stroke-miterlimit:3.25;" d="M 940.097656 325.421875 L 1066.015625 227.730469 " transform="matrix(1,0,0,1,-65,-4)"/>
<path style="fill:none;stroke-width:1;stroke-linecap:butt;stroke-linejoin:miter;stroke:rgb(50%,50%,50%);stroke-opacity:0.7;stroke-miterlimit:3.25;" d="M 881.648438 -165.371094 L 1000.40625 8.558594 " transform="matrix(1,0,0,1,-65,-4)"/>
<path style="fill:none;stroke-width:1;stroke-linecap:butt;stroke-linejoin:miter;stroke:rgb(50%,50%,50%);stroke-opacity:0.7;stroke-miterlimit:3.25;" d="M 207.445312 396.035156 L 293.066406 123.035156 " transform="matrix(1,0,0,1,-65,-4)"/>
<path style="fill:none;stroke-width:1;stroke-linecap:butt;stroke-linejoin:miter;stroke:rgb(50%,50%,50%);stroke-opacity:0.7;stroke-miterlimit:3.25;" d="M 449.953125 620.164062 L 593.941406 386.390625 " transform="matrix(1,0,0,1,-65,-4)"/>
<path style="fill:none;stroke-width:1;stroke-linecap:butt;stroke-linejoin:miter;stroke:rgb(50%,50%,50%);stroke-opacity:0.7;stroke-miterlimit:3.25;" d="M 741.75 125.886719 L 898.449219 361.265625 " transform="matrix(1,0,0,1,-65,-4)"/>
<path style="fill:none;stroke-width:1;stroke-linecap:butt;stroke-linejoin:miter;stroke:rgb(50%,50%,50%);stroke-opacity:0.7;stroke-miterlimit:3.25;" d="M 734.074219 121.496094 L 451.488281 105.847656 " transform="matrix(1,0,0,1,-65,-4)"/>
<path style="fill:none;stroke-width:1;stroke-linecap:butt;stroke-linejoin:miter;stroke:rgb(50%,50%,50%);stroke-opacity:0.7;stroke-miterlimit:3.25;" d="M 664.558594 158.457031 L 563.925781 65.753906 " transform="matrix(1,0,0,1,-65,-4)"/>
<path style="fill:none;stroke-width:1;stroke-linecap:butt;stroke-linejoin:miter;stroke:rgb(50%,50%,50%);stroke-opacity:0.7;stroke-miterlimit:3.25;" d="M 656.074219 86.570312 L 501.933594 -40.023438 " transform="matrix(1,0,0,1,-65,-4)"/>
<path style="fill:none;stroke-width:1;stroke-linecap:butt;stroke-linejoin:miter;stroke:rgb(50%,50%,50%);stroke-opacity:0.7;stroke-miterlimit:3.25;" d="M 660.660156 84.820312 L 693.78125 -126.667969 " transform="matrix(1,0,0,1,-65,-4)"/>
<path style="fill:none;stroke-width:1;stroke-linecap:butt;stroke-linejoin:miter;stroke:rgb(50%,50%,50%);stroke-opacity:0.7;stroke-miterlimit:3.25;" d="M 658.496094 94.449219 L 628.042969 197.730469 " transform="matrix(1,0,0,1,-65,-4)"/>
<path style="fill:none;stroke-width:1;stroke-linecap:butt;stroke-linejoin:miter;stroke:rgb(50%,50%,50%);stroke-opacity:0.7;stroke-miterlimit:3.25;" d="M 656.921875 93.660156 L 554.515625 229.734375 " transform="matrix(1,0,0,1,-65,-4)"/>
<path style="fill:none;stroke-width:1;stroke-linecap:butt;stroke-linejoin:miter;stroke:rgb(50%,50%,50%);stroke-opacity:0.7;stroke-miterlimit:3.25;" d="M 661.847656 94.25 L 790.128906 392.757812 " transform="matrix(1,0,0,1,-65,-4)"/>
<path style="fill:none;stroke-width:1;stroke-linecap:butt;stroke-linejoin:miter;stroke:rgb(50%,50%,50%);stroke-opacity:0.7;stroke-miterlimit:3.25;" d="M 655.566406 348.082031 L 652.339844 672.148438 " transform="matrix(1,0,0,1,-65,-4)"/>
<path style="fill:none;stroke-width:1;stroke-linecap:butt;stroke-linejoin:miter;stroke:rgb(50%,50%,50%);stroke-opacity:0.7;stroke-miterlimit:3.25;" d="M 650.703125 343.703125 L 501.132812 360.910156 " transform="matrix(1,0,0,1,-65,-4)"/>
<path style="fill:none;stroke-width:1;stroke-linecap:butt;stroke-linejoin:miter;stroke:rgb(50%,50%,50%);stroke-opacity:0.7;stroke-miterlimit:3.25;" d="M 454.460938 529.820312 L 448.941406 365.820312 " transform="matrix(1,0,0,1,-65,-4)"/>
<path style="fill:none;stroke-width:1;stroke-linecap:butt;stroke-linejoin:miter;stroke:rgb(50%,50%,50%);stroke-opacity:0.7;stroke-miterlimit:3.25;" d="M 455.78125 529.957031 L 495.066406 366.285156 " transform="matrix(1,0,0,1,-65,-4)"/>
<path style="fill:none;stroke-width:1;stroke-linecap:butt;stroke-linejoin:miter;stroke:rgb(50%,50%,50%);stroke-opacity:0.7;stroke-miterlimit:3.25;" d="M 639.996094 45.761719 L 602.15625 93.210938 " transform="matrix(1,0,0,1,-65,-4)"/>
<path style="fill:none;stroke-width:1;stroke-linecap:butt;stroke-linejoin:miter;stroke:rgb(50%,50%,50%);stroke-opacity:0.7;stroke-miterlimit:3.25;" d="M 644.484375 37.15625 L 693.140625 -126.8125 " transform="matrix(1,0,0,1,-65,-4)"/>
<path style="fill:none;stroke-width:1;stroke-linecap:butt;stroke-linejoin:miter;stroke:rgb(50%,50%,50%);stroke-opacity:0.7;stroke-miterlimit:3.25;" d="M 124.9375 363.050781 L 516.738281 446.039062 " transform="matrix(1,0,0,1,-65,-4)"/>
<path style="fill:none;stroke-width:1;stroke-linecap:butt;stroke-linejoin:miter;stroke:rgb(50%,50%,50%);stroke-opacity:0.7;stroke-miterlimit:3.25;" d="M 115.617188 359.929688 L -145.152344 237.976562 " transform="matrix(1,0,0,1,-65,-4)"/>
<path style="fill:none;stroke-width:1;stroke-linecap:butt;stroke-linejoin:miter;stroke:rgb(50%,50%,50%);stroke-opacity:0.7;stroke-miterlimit:3.25;" d="M 415.410156 -101.003906 L 296.929688 113.988281 " transform="matrix(1,0,0,1,-65,-4)"/>
<path style="fill:none;stroke-width:1;stroke-linecap:butt;stroke-linejoin:miter;stroke:rgb(50%,50%,50%);stroke-opacity:0.7;stroke-miterlimit:3.25;" d="M 421 -101.566406 L 557.085938 58.636719 " transform="matrix(1,0,0,1,-65,-4)"/>
<path style="fill:none;stroke-width:1;stroke-linecap:butt;stroke-linejoin:miter;stroke:rgb(50%,50%,50%);stroke-opacity:0.7;stroke-miterlimit:3.25;" d="M 358.460938 306.582031 L 215.28125 251.851562 " transform="matrix(1,0,0,1,-65,-4)"/>
<path style="fill:none;stroke-width:1;stroke-linecap:butt;stroke-linejoin:miter;stroke:rgb(50%,50%,50%);stroke-opacity:0.7;stroke-miterlimit:3.25;" d="M 365.859375 312.433594 L 527.804688 550.5 " transform="matrix(1,0,0,1,-65,-4)"/>
<path style="fill:none;stroke-width:1;stroke-linecap:butt;stroke-linejoin:miter;stroke:rgb(50%,50%,50%);stroke-opacity:0.7;stroke-miterlimit:3.25;" d="M 364.960938 303.773438 L 444.667969 110.144531 " transform="matrix(1,0,0,1,-65,-4)"/>
<path style="fill:none;stroke-width:1;stroke-linecap:butt;stroke-linejoin:miter;stroke:rgb(50%,50%,50%);stroke-opacity:0.7;stroke-miterlimit:3.25;" d="M 592.597656 379.191406 L 427.992188 254.300781 " transform="matrix(1,0,0,1,-65,-4)"/>
<path style="fill:none;stroke-width:1;stroke-linecap:butt;stroke-linejoin:miter;stroke:rgb(50%,50%,50%);stroke-opacity:0.7;stroke-miterlimit:3.25;" d="M 593.742188 378.097656 L 449.378906 167.21875 " transform="matrix(1,0,0,1,-65,-4)"/>
<path style="fill:none;stroke-width:1;stroke-linecap:butt;stroke-linejoin:miter;stroke:rgb(50%,50%,50%);stroke-opacity:0.7;stroke-miterlimit:3.25;" d="M 594.664062 386.757812 L 470.65625 690.007812 " transform="matrix(1,0,0,1,-65,-4)"/>
<path style="fill:none;stroke-width:1;stroke-linecap:butt;stroke-linejoin:miter;stroke:rgb(50%,50%,50%);stroke-opacity:0.7;stroke-miterlimit:3.25;" d="M 601.433594 382.855469 L 993.769531 436.957031 " transform="matrix(1,0,0,1,-65,-4)"/>
<path style="fill:none;stroke-width:1;stroke-linecap:butt;stroke-linejoin:miter;stroke:rgb(50%,50%,50%);stroke-opacity:0.7;stroke-miterlimit:3.25;" d="M 223.9375 198.699219 L 130.546875 414.34375 " transform="matrix(1,0,0,1,-65,-4)"/>
<path style="fill:none;stroke-width:1;stroke-linecap:butt;stroke-linejoin:miter;stroke:rgb(50%,50%,50%);stroke-opacity:0.7;stroke-miterlimit:3.25;" d="M 228.441406 198.402344 L 366.59375 429.039062 " transform="matrix(1,0,0,1,-65,-4)"/>
<path style="fill:none;stroke-width:1;stroke-linecap:butt;stroke-linejoin:miter;stroke:rgb(50%,50%,50%);stroke-opacity:0.7;stroke-miterlimit:3.25;" d="M 899.054688 369.839844 L 753.324219 674.726562 " transform="matrix(1,0,0,1,-65,-4)"/>
<path style="fill:none;stroke-width:1;stroke-linecap:butt;stroke-linejoin:miter;stroke:rgb(50%,50%,50%);stroke-opacity:0.7;stroke-miterlimit:3.25;" d="M 905.160156 368.324219 L 994.695312 434.6875 " transform="matrix(1,0,0,1,-65,-4)"/>
<path style="fill:none;stroke-width:1;stroke-linecap:butt;stroke-linejoin:miter;stroke:rgb(50%,50%,50%);stroke-opacity:0.7;stroke-miterlimit:3.25;" d="M 305.113281 -0.367188 L 442.589844 102.609375 " transform="matrix(1,0,0,1,-65,-4)"/>
<path style="fill:none;stroke-width:1;stroke-linecap:butt;stroke-linejoin:miter;stroke:rgb(50%,50%,50%);stroke-opacity:0.7;stroke-miterlimit:3.25;" d="M 468 74.707031 L 495.738281 356.554688 " transform="matrix(1,0,0,1,-65,-4)"/>
<path style="fill:none;stroke-width:1;stroke-linecap:butt;stroke-linejoin:miter;stroke:rgb(50%,50%,50%);stroke-opacity:0.7;stroke-miterlimit:3.25;" d="M 471.796875 67.3125 L 573.773438 8.414062 " transform="matrix(1,0,0,1,-65,-4)"/>
<path style="fill:none;stroke-width:1;stroke-linecap:butt;stroke-linejoin:miter;stroke:rgb(50%,50%,50%);stroke-opacity:0.7;stroke-miterlimit:3.25;" d="M 291.890625 122.488281 L 213.316406 245.914062 " transform="matrix(1,0,0,1,-65,-4)"/>
<path style="fill:none;stroke-width:1;stroke-linecap:butt;stroke-linejoin:miter;stroke:rgb(50%,50%,50%);stroke-opacity:0.7;stroke-miterlimit:3.25;" d="M 848.554688 258.503906 L 696.726562 224.921875 " transform="matrix(1,0,0,1,-65,-4)"/>
<path style="fill:none;stroke-width:1;stroke-linecap:butt;stroke-linejoin:miter;stroke:rgb(50%,50%,50%);stroke-opacity:0.7;stroke-miterlimit:3.25;" d="M 215.144531 252.171875 L 444.292969 358.792969 " transform="matrix(1,0,0,1,-65,-4)"/>
<path style="fill:none;stroke-width:1;stroke-linecap:butt;stroke-linejoin:miter;stroke:rgb(50%,50%,50%);stroke-opacity:0.7;stroke-miterlimit:3.25;" d="M 207.136719 253.554688 L 62.460938 395.90625 " transform="matrix(1,0,0,1,-65,-4)"/>
<path style="fill:none;stroke-width:1;stroke-linecap:butt;stroke-linejoin:miter;stroke:rgb(50%,50%,50%);stroke-opacity:0.7;stroke-miterlimit:3.25;" d="M 198.855469 300.835938 L 131.113281 414.632812 " transform="matrix(1,0,0,1,-65,-4)"/>
<path style="fill:none;stroke-width:1;stroke-linecap:butt;stroke-linejoin:miter;stroke:rgb(50%,50%,50%);stroke-opacity:0.7;stroke-miterlimit:3.25;" d="M 205.21875 299.710938 L 365.300781 430.15625 " transform="matrix(1,0,0,1,-65,-4)"/>
<path style="fill:none;stroke-width:1;stroke-linecap:butt;stroke-linejoin:miter;stroke:rgb(50%,50%,50%);stroke-opacity:0.7;stroke-miterlimit:3.25;" d="M 202.507812 291.769531 L 244.507812 111.46875 " transform="matrix(1,0,0,1,-65,-4)"/>
<path style="fill:none;stroke-width:1;stroke-linecap:butt;stroke-linejoin:miter;stroke:rgb(50%,50%,50%);stroke-opacity:0.7;stroke-miterlimit:3.25;" d="M 696.839844 223.671875 L 851.53125 217.894531 " transform="matrix(1,0,0,1,-65,-4)"/>
<path style="fill:none;stroke-width:1;stroke-linecap:butt;stroke-linejoin:miter;stroke:rgb(50%,50%,50%);stroke-opacity:0.7;stroke-miterlimit:3.25;" d="M 708.890625 303.964844 L 633.777344 468.058594 " transform="matrix(1,0,0,1,-65,-4)"/>
<path style="fill:none;stroke-width:1;stroke-linecap:butt;stroke-linejoin:miter;stroke:rgb(50%,50%,50%);stroke-opacity:0.7;stroke-miterlimit:3.25;" d="M 793.121094 160.503906 L 792.101562 392.359375 " transform="matrix(1,0,0,1,-65,-4)"/>
<path style="fill:none;stroke-width:1;stroke-linecap:butt;stroke-linejoin:miter;stroke:rgb(50%,50%,50%);stroke-opacity:0.7;stroke-miterlimit:3.25;" d="M 499.355469 357.652344 L 623.507812 206.296875 " transform="matrix(1,0,0,1,-65,-4)"/>
<path style="fill:none;stroke-width:1;stroke-linecap:butt;stroke-linejoin:miter;stroke:rgb(50%,50%,50%);stroke-opacity:0.7;stroke-miterlimit:3.25;" d="M 498.183594 356.9375 L 549.578125 238.222656 " transform="matrix(1,0,0,1,-65,-4)"/>
<path style="fill:none;stroke-width:1;stroke-linecap:butt;stroke-linejoin:miter;stroke:rgb(50%,50%,50%);stroke-opacity:0.7;stroke-miterlimit:3.25;" d="M 501.164062 361.402344 L 809.296875 356.851562 " transform="matrix(1,0,0,1,-65,-4)"/>
<path style="fill:none;stroke-width:1;stroke-linecap:butt;stroke-linejoin:miter;stroke:rgb(50%,50%,50%);stroke-opacity:0.7;stroke-miterlimit:3.25;" d="M 499.121094 365.480469 L 600.011719 504.9375 " transform="matrix(1,0,0,1,-65,-4)"/>
<path style="fill:none;stroke-width:1;stroke-linecap:butt;stroke-linejoin:miter;stroke:rgb(50%,50%,50%);stroke-opacity:0.7;stroke-miterlimit:3.25;" d="M 996.058594 212.085938 L 795.742188 393.980469 " transform="matrix(1,0,0,1,-65,-4)"/>
<path style="fill:none;stroke-width:1;stroke-linecap:butt;stroke-linejoin:miter;stroke:rgb(50%,50%,50%);stroke-opacity:0.7;stroke-miterlimit:3.25;" d="M 621.898438 515.359375 L 491.894531 408 " transform="matrix(1,0,0,1,-65,-4)"/>
<path style="fill:none;stroke-width:1;stroke-linecap:butt;stroke-linejoin:miter;stroke:rgb(50%,50%,50%);stroke-opacity:0.7;stroke-miterlimit:3.25;" d="M 492.847656 406.167969 L 665.640625 453.90625 " transform="matrix(1,0,0,1,-65,-4)"/>
<path style="fill:none;stroke-width:1;stroke-linecap:butt;stroke-linejoin:miter;stroke:rgb(50%,50%,50%);stroke-opacity:0.7;stroke-miterlimit:3.25;" d="M 449.757812 159.34375 L 574.882812 9.734375 " transform="matrix(1,0,0,1,-65,-4)"/>
<path style="fill:none;stroke-width:1;stroke-linecap:butt;stroke-linejoin:miter;stroke:rgb(50%,50%,50%);stroke-opacity:0.7;stroke-miterlimit:3.25;" d="M 441.824219 161.796875 L 250.390625 107.992188 " transform="matrix(1,0,0,1,-65,-4)"/>
<path style="fill:none;stroke-width:1;stroke-linecap:butt;stroke-linejoin:miter;stroke:rgb(50%,50%,50%);stroke-opacity:0.7;stroke-miterlimit:3.25;" d="M 450.289062 159.855469 L 556.585938 65.683594 " transform="matrix(1,0,0,1,-65,-4)"/>
<path style="fill:none;stroke-width:1;stroke-linecap:butt;stroke-linejoin:miter;stroke:rgb(50%,50%,50%);stroke-opacity:0.7;stroke-miterlimit:3.25;" d="M 577.484375 10.855469 L 552.113281 228.773438 " transform="matrix(1,0,0,1,-65,-4)"/>
<path style="fill:none;stroke-width:1;stroke-linecap:butt;stroke-linejoin:miter;stroke:rgb(50%,50%,50%);stroke-opacity:0.7;stroke-miterlimit:3.25;" d="M 957.746094 175.984375 L 1065.386719 222.730469 " transform="matrix(1,0,0,1,-65,-4)"/>
<path style="fill:none;stroke-width:1;stroke-linecap:butt;stroke-linejoin:miter;stroke:rgb(50%,50%,50%);stroke-opacity:0.7;stroke-miterlimit:3.25;" d="M 802.222656 597.550781 L 792.332031 402.242188 " transform="matrix(1,0,0,1,-65,-4)"/>
<path style="fill:none;stroke-width:1;stroke-linecap:butt;stroke-linejoin:miter;stroke:rgb(50%,50%,50%);stroke-opacity:0.7;stroke-miterlimit:3.25;" d="M 630.871094 467.683594 L 561.136719 67.277344 " transform="matrix(1,0,0,1,-65,-4)"/>
<path style="fill:none;stroke-width:1;stroke-linecap:butt;stroke-linejoin:miter;stroke:rgb(50%,50%,50%);stroke-opacity:0.7;stroke-miterlimit:3.25;" d="M 588.207031 -217.449219 L 560.78125 57.484375 " transform="matrix(1,0,0,1,-65,-4)"/>
<path style="fill-rule:evenodd;fill:rgb(50%,50%,50%);fill-opacity:1;stroke-width:1;stroke-linecap:square;stroke-linejoin:miter;stroke:rgb(0%,0%,0%);stroke-opacity:0.7;stroke-miterlimit:3.25;" d="M 1108.945312 102 C 1108.945312 100.6875 1108.425781 99.429688 1107.496094 98.503906 C 1106.570312 97.574219 1105.3125 97.054688 1104 97.054688 C 1102.6875 97.054688 1101.429688 97.574219 1100.503906 98.503906 C 1099.574219 99.429688 1099.054688 100.6875 1099.054688 102 C 1099.054688 103.3125 1099.574219 104.570312 1100.503906 105.496094 C 1101.429688 106.425781 1102.6875 106.945312 1104 106.945312 C 1105.3125 106.945312 1106.570312 106.425781 1107.496094 105.496094 C 1108.425781 104.570312 1108.945312 103.3125 1108.945312 102 Z M 1108.945312 102 " transform="matrix(1,0,0,1,-65,-4)"/>
<path style="fill-rule:evenodd;fill:rgb(50%,50%,50%);fill-opacity:1;stroke-width:1;stroke-linecap:square;stroke-linejoin:miter;stroke:rgb(0%,0%,0%);stroke-opacity:0.7;stroke-miterlimit:3.25;" d="M 405.945312 293 C 405.945312 291.6875 405.425781 290.429688 404.496094 289.503906 C 403.570312 288.574219 402.3125 288.054688 401 288.054688 C 399.6875 288.054688 398.429688 288.574219 397.503906 289.503906 C 396.574219 290.429688 396.054688 291.6875 396.054688 293 C 396.054688 294.3125 396.574219 295.570312 397.503906 296.496094 C 398.429688 297.425781 399.6875 297.945312 401 297.945312 C 402.3125 297.945312 403.570312 297.425781 404.496094 296.496094 C 405.425781 295.570312 405.945312 294.3125 405.945312 293 Z M 405.945312 293 " transform="matrix(1,0,0,1,-65,-4)"/>
<path style="fill-rule:evenodd;fill:rgb(50%,50%,50%);fill-opacity:1;stroke-width:1;stroke-linecap:square;stroke-linejoin:miter;stroke:rgb(0%,0%,0%);stroke-opacity:0.7;stroke-miterlimit:3.25;" d="M 484.945312 340 C 484.945312 338.6875 484.425781 337.429688 483.496094 336.503906 C 482.570312 335.574219 481.3125 335.054688 480 335.054688 C 478.6875 335.054688 477.429688 335.574219 476.503906 336.503906 C 475.574219 337.429688 475.054688 338.6875 475.054688 340 C 475.054688 341.3125 475.574219 342.570312 476.503906 343.496094 C 477.429688 344.425781 478.6875 344.945312 480 344.945312 C 481.3125 344.945312 482.570312 344.425781 483.496094 343.496094 C 484.425781 342.570312 484.945312 341.3125 484.945312 340 Z M 484.945312 340 " transform="matrix(1,0,0,1,-65,-4)"/>
<path style="fill-rule:evenodd;fill:rgb(50%,50%,50%);fill-opacity:1;stroke-width:1;stroke-linecap:square;stroke-linejoin:miter;stroke:rgb(0%,0%,0%);stroke-opacity:0.7;stroke-miterlimit:3.25;" d="M 541.945312 94 C 541.945312 92.6875 541.425781 91.429688 540.496094 90.503906 C 539.570312 89.574219 538.3125 89.054688 537 89.054688 C 535.6875 89.054688 534.429688 89.574219 533.503906 90.503906 C 532.574219 91.429688 532.054688 92.6875 532.054688 94 C 532.054688 95.3125 532.574219 96.570312 533.503906 97.496094 C 534.429688 98.425781 535.6875 98.945312 537 98.945312 C 538.3125 98.945312 539.570312 98.425781 540.496094 97.496094 C 541.425781 96.570312 541.945312 95.3125 541.945312 94 Z M 541.945312 94 " transform="matrix(1,0,0,1,-65,-4)"/>
<path style="fill-rule:evenodd;fill:rgb(50%,50%,50%);fill-opacity:1;stroke-width:1;stroke-linecap:square;stroke-linejoin:miter;stroke:rgb(0%,0%,0%);stroke-opacity:0.7;stroke-miterlimit:3.25;" d="M 696.945312 328 C 696.945312 326.6875 696.425781 325.429688 695.496094 324.503906 C 694.570312 323.574219 693.3125 323.054688 692 323.054688 C 690.6875 323.054688 689.429688 323.574219 688.503906 324.503906 C 687.574219 325.429688 687.054688 326.6875 687.054688 328 C 687.054688 329.3125 687.574219 330.570312 688.503906 331.496094 C 689.429688 332.425781 690.6875 332.945312 692 332.945312 C 693.3125 332.945312 694.570312 332.425781 695.496094 331.496094 C 696.425781 330.570312 696.945312 329.3125 696.945312 328 Z M 696.945312 328 " transform="matrix(1,0,0,1,-65,-4)"/>
<path style="fill-rule:evenodd;fill:rgb(50%,50%,50%);fill-opacity:1;stroke-width:1;stroke-linecap:square;stroke-linejoin:miter;stroke:rgb(0%,0%,0%);stroke-opacity:0.7;stroke-miterlimit:3.25;" d="M 1032.945312 254 C 1032.945312 252.6875 1032.425781 251.429688 1031.496094 250.503906 C 1030.570312 249.574219 1029.3125 249.054688 1028 249.054688 C 1026.6875 249.054688 1025.429688 249.574219 1024.503906 250.503906 C 1023.574219 251.429688 1023.054688 252.6875 1023.054688 254 C 1023.054688 255.3125 1023.574219 256.570312 1024.503906 257.496094 C 1025.429688 258.425781 1026.6875 258.945312 1028 258.945312 C 1029.3125 258.945312 1030.570312 258.425781 1031.496094 257.496094 C 1032.425781 256.570312 1032.945312 255.3125 1032.945312 254 Z M 1032.945312 254 " transform="matrix(1,0,0,1,-65,-4)"/>
<path style="fill-rule:evenodd;fill:rgb(50%,50%,50%);fill-opacity:1;stroke-width:1;stroke-linecap:square;stroke-linejoin:miter;stroke:rgb(0%,0%,0%);stroke-opacity:0.7;stroke-miterlimit:3.25;" d="M 1293.945312 4 C 1293.945312 2.6875 1293.425781 1.429688 1292.496094 0.503906 C 1291.570312 -0.425781 1290.3125 -0.945312 1289 -0.945312 C 1287.6875 -0.945312 1286.429688 -0.425781 1285.503906 0.503906 C 1284.574219 1.429688 1284.054688 2.6875 1284.054688 4 C 1284.054688 5.3125 1284.574219 6.570312 1285.503906 7.496094 C 1286.429688 8.425781 1287.6875 8.945312 1289 8.945312 C 1290.3125 8.945312 1291.570312 8.425781 1292.496094 7.496094 C 1293.425781 6.570312 1293.945312 5.3125 1293.945312 4 Z M 1293.945312 4 " transform="matrix(1,0,0,1,-65,-4)"/>
<path style="fill-rule:evenodd;fill:rgb(50%,50%,50%);fill-opacity:1;stroke-width:1;stroke-linecap:square;stroke-linejoin:miter;stroke:rgb(0%,0%,0%);stroke-opacity:0.7;stroke-miterlimit:3.25;" d="M 157.945312 356 C 157.945312 354.6875 157.425781 353.429688 156.496094 352.503906 C 155.570312 351.574219 154.3125 351.054688 153 351.054688 C 151.6875 351.054688 150.429688 351.574219 149.503906 352.503906 C 148.574219 353.429688 148.054688 354.6875 148.054688 356 C 148.054688 357.3125 148.574219 358.570312 149.503906 359.496094 C 150.429688 360.425781 151.6875 360.945312 153 360.945312 C 154.3125 360.945312 155.570312 360.425781 156.496094 359.496094 C 157.425781 358.570312 157.945312 357.3125 157.945312 356 Z M 157.945312 356 " transform="matrix(1,0,0,1,-65,-4)"/>
<path style="fill-rule:evenodd;fill:rgb(50%,50%,50%);fill-opacity:1;stroke-width:1;stroke-linecap:square;stroke-linejoin:miter;stroke:rgb(0%,0%,0%);stroke-opacity:0.7;stroke-miterlimit:3.25;" d="M 1068.945312 144 C 1068.945312 142.6875 1068.425781 141.429688 1067.496094 140.503906 C 1066.570312 139.574219 1065.3125 139.054688 1064 139.054688 C 1062.6875 139.054688 1061.429688 139.574219 1060.503906 140.503906 C 1059.574219 141.429688 1059.054688 142.6875 1059.054688 144 C 1059.054688 145.3125 1059.574219 146.570312 1060.503906 147.496094 C 1061.429688 148.425781 1062.6875 148.945312 1064 148.945312 C 1065.3125 148.945312 1066.570312 148.425781 1067.496094 147.496094 C 1068.425781 146.570312 1068.945312 145.3125 1068.945312 144 Z M 1068.945312 144 " transform="matrix(1,0,0,1,-65,-4)"/>
<path style="fill-rule:evenodd;fill:rgb(50%,50%,50%);fill-opacity:1;stroke-width:1;stroke-linecap:square;stroke-linejoin:miter;stroke:rgb(0%,0%,0%);stroke-opacity:0.7;stroke-miterlimit:3.25;" d="M 713.945312 248 C 713.945312 246.6875 713.425781 245.429688 712.496094 244.503906 C 711.570312 243.574219 710.3125 243.054688 709 243.054688 C 707.6875 243.054688 706.429688 243.574219 705.503906 244.503906 C 704.574219 245.429688 704.054688 246.6875 704.054688 248 C 704.054688 249.3125 704.574219 250.570312 705.503906 251.496094 C 706.429688 252.425781 707.6875 252.945312 709 252.945312 C 710.3125 252.945312 711.570312 252.425781 712.496094 251.496094 C 713.425781 250.570312 713.945312 249.3125 713.945312 248 Z M 713.945312 248 " transform="matrix(1,0,0,1,-65,-4)"/>
<path style="fill-rule:evenodd;fill:rgb(50%,50%,50%);fill-opacity:1;stroke-width:1;stroke-linecap:square;stroke-linejoin:miter;stroke:rgb(0%,0%,0%);stroke-opacity:0.7;stroke-miterlimit:3.25;" d="M 780.945312 35 C 780.945312 33.6875 780.425781 32.429688 779.496094 31.503906 C 778.570312 30.574219 777.3125 30.054688 776 30.054688 C 774.6875 30.054688 773.429688 30.574219 772.503906 31.503906 C 771.574219 32.429688 771.054688 33.6875 771.054688 35 C 771.054688 36.3125 771.574219 37.570312 772.503906 38.496094 C 773.429688 39.425781 774.6875 39.945312 776 39.945312 C 777.3125 39.945312 778.570312 39.425781 779.496094 38.496094 C 780.425781 37.570312 780.945312 36.3125 780.945312 35 Z M 780.945312 35 " transform="matrix(1,0,0,1,-65,-4)"/>
<path style="fill-rule:evenodd;fill:rgb(50%,50%,50%);fill-opacity:1;stroke-width:1;stroke-linecap:square;stroke-linejoin:miter;stroke:rgb(0%,0%,0%);stroke-opacity:0.7;stroke-miterlimit:3.25;" d="M 238.945312 351 C 238.945312 349.6875 238.425781 348.429688 237.496094 347.503906 C 236.570312 346.574219 235.3125 346.054688 234 346.054688 C 232.6875 346.054688 231.429688 346.574219 230.503906 347.503906 C 229.574219 348.429688 229.054688 349.6875 229.054688 351 C 229.054688 352.3125 229.574219 353.570312 230.503906 354.496094 C 231.429688 355.425781 232.6875 355.945312 234 355.945312 C 235.3125 355.945312 236.570312 355.425781 237.496094 354.496094 C 238.425781 353.570312 238.945312 352.3125 238.945312 351 Z M 238.945312 351 " transform="matrix(1,0,0,1,-65,-4)"/>
<path style="fill-rule:evenodd;fill:rgb(50%,50%,50%);fill-opacity:1;stroke-width:1;stroke-linecap:square;stroke-linejoin:miter;stroke:rgb(0%,0%,0%);stroke-opacity:0.7;stroke-miterlimit:3.25;" d="M 261.945312 398 C 261.945312 396.6875 261.425781 395.429688 260.496094 394.503906 C 259.570312 393.574219 258.3125 393.054688 257 393.054688 C 255.6875 393.054688 254.429688 393.574219 253.503906 394.503906 C 252.574219 395.429688 252.054688 396.6875 252.054688 398 C 252.054688 399.3125 252.574219 400.570312 253.503906 401.496094 C 254.429688 402.425781 255.6875 402.945312 257 402.945312 C 258.3125 402.945312 259.570312 402.425781 260.496094 401.496094 C 261.425781 400.570312 261.945312 399.3125 261.945312 398 Z M 261.945312 398 " transform="matrix(1,0,0,1,-65,-4)"/>
<path style="fill-rule:evenodd;fill:rgb(50%,50%,50%);fill-opacity:1;stroke-width:1;stroke-linecap:square;stroke-linejoin:miter;stroke:rgb(0%,0%,0%);stroke-opacity:0.7;stroke-miterlimit:3.25;" d="M 597.945312 348 C 597.945312 346.6875 597.425781 345.429688 596.496094 344.503906 C 595.570312 343.574219 594.3125 343.054688 593 343.054688 C 591.6875 343.054688 590.429688 343.574219 589.503906 344.503906 C 588.574219 345.429688 588.054688 346.6875 588.054688 348 C 588.054688 349.3125 588.574219 350.570312 589.503906 351.496094 C 590.429688 352.425781 591.6875 352.945312 593 352.945312 C 594.3125 352.945312 595.570312 352.425781 596.496094 351.496094 C 597.425781 350.570312 597.945312 349.3125 597.945312 348 Z M 597.945312 348 " transform="matrix(1,0,0,1,-65,-4)"/>
<path style="fill-rule:evenodd;fill:rgb(50%,50%,50%);fill-opacity:1;stroke-width:1;stroke-linecap:square;stroke-linejoin:miter;stroke:rgb(0%,0%,0%);stroke-opacity:0.7;stroke-miterlimit:3.25;" d="M 414.945312 186 C 414.945312 184.6875 414.425781 183.429688 413.496094 182.503906 C 412.570312 181.574219 411.3125 181.054688 410 181.054688 C 408.6875 181.054688 407.429688 181.574219 406.503906 182.503906 C 405.574219 183.429688 405.054688 184.6875 405.054688 186 C 405.054688 187.3125 405.574219 188.570312 406.503906 189.496094 C 407.429688 190.425781 408.6875 190.945312 410 190.945312 C 411.3125 190.945312 412.570312 190.425781 413.496094 189.496094 C 414.425781 188.570312 414.945312 187.3125 414.945312 186 Z M 414.945312 186 " transform="matrix(1,0,0,1,-65,-4)"/>
<path style="fill-rule:evenodd;fill:rgb(50%,50%,50%);fill-opacity:1;stroke-width:1;stroke-linecap:square;stroke-linejoin:miter;stroke:rgb(0%,0%,0%);stroke-opacity:0.7;stroke-miterlimit:3.25;" d="M 531.945312 337 C 531.945312 335.6875 531.425781 334.429688 530.496094 333.503906 C 529.570312 332.574219 528.3125 332.054688 527 332.054688 C 525.6875 332.054688 524.429688 332.574219 523.503906 333.503906 C 522.574219 334.429688 522.054688 335.6875 522.054688 337 C 522.054688 338.3125 522.574219 339.570312 523.503906 340.496094 C 524.429688 341.425781 525.6875 341.945312 527 341.945312 C 528.3125 341.945312 529.570312 341.425781 530.496094 340.496094 C 531.425781 339.570312 531.945312 338.3125 531.945312 337 Z M 531.945312 337 " transform="matrix(1,0,0,1,-65,-4)"/>
<path style="fill-rule:evenodd;fill:rgb(50%,50%,50%);fill-opacity:1;stroke-width:1;stroke-linecap:square;stroke-linejoin:miter;stroke:rgb(0%,0%,0%);stroke-opacity:0.7;stroke-miterlimit:3.25;" d="M 427.945312 397 C 427.945312 395.6875 427.425781 394.429688 426.496094 393.503906 C 425.570312 392.574219 424.3125 392.054688 423 392.054688 C 421.6875 392.054688 420.429688 392.574219 419.503906 393.503906 C 418.574219 394.429688 418.054688 395.6875 418.054688 397 C 418.054688 398.3125 418.574219 399.570312 419.503906 400.496094 C 420.429688 401.425781 421.6875 401.945312 423 401.945312 C 424.3125 401.945312 425.570312 401.425781 426.496094 400.496094 C 427.425781 399.570312 427.945312 398.3125 427.945312 397 Z M 427.945312 397 " transform="matrix(1,0,0,1,-65,-4)"/>
<path style="fill-rule:evenodd;fill:rgb(50%,50%,50%);fill-opacity:1;stroke-width:1;stroke-linecap:square;stroke-linejoin:miter;stroke:rgb(0%,0%,0%);stroke-opacity:0.7;stroke-miterlimit:3.25;" d="M 379.945312 44 C 379.945312 42.6875 379.425781 41.429688 378.496094 40.503906 C 377.570312 39.574219 376.3125 39.054688 375 39.054688 C 373.6875 39.054688 372.429688 39.574219 371.503906 40.503906 C 370.574219 41.429688 370.054688 42.6875 370.054688 44 C 370.054688 45.3125 370.574219 46.570312 371.503906 47.496094 C 372.429688 48.425781 373.6875 48.945312 375 48.945312 C 376.3125 48.945312 377.570312 48.425781 378.496094 47.496094 C 379.425781 46.570312 379.945312 45.3125 379.945312 44 Z M 379.945312 44 " transform="matrix(1,0,0,1,-65,-4)"/>
<path style="fill:none;stroke-width:1;stroke-linecap:square;stroke-linejoin:miter;stroke:rgb(0%,0%,0%);stroke-opacity:0.7;stroke-miterlimit:3.25;" d="M 1077.945312 409 C 1077.945312 407.6875 1077.425781 406.429688 1076.496094 405.503906 C 1075.570312 404.574219 1074.3125 404.054688 1073 404.054688 C 1071.6875 404.054688 1070.429688 404.574219 1069.503906 405.503906 C 1068.574219 406.429688 1068.054688 407.6875 1068.054688 409 C 1068.054688 410.3125 1068.574219 411.570312 1069.503906 412.496094 C 1070.429688 413.425781 1071.6875 413.945312 1073 413.945312 C 1074.3125 413.945312 1075.570312 413.425781 1076.496094 412.496094 C 1077.425781 411.570312 1077.945312 410.3125 1077.945312 409 Z M 1077.945312 409 " transform="matrix(1,0,0,1,-65,-4)"/>
<path style="fill-rule:evenodd;fill:rgb(50%,50%,50%);fill-opacity:1;stroke-width:1;stroke-linecap:square;stroke-linejoin:miter;stroke:rgb(0%,0%,0%);stroke-opacity:0.7;stroke-miterlimit:3.25;" d="M 531.945312 298 C 531.945312 296.6875 531.425781 295.429688 530.496094 294.503906 C 529.570312 293.574219 528.3125 293.054688 527 293.054688 C 525.6875 293.054688 524.429688 293.574219 523.503906 294.503906 C 522.574219 295.429688 522.054688 296.6875 522.054688 298 C 522.054688 299.3125 522.574219 300.570312 523.503906 301.496094 C 524.429688 302.425781 525.6875 302.945312 527 302.945312 C 528.3125 302.945312 529.570312 302.425781 530.496094 301.496094 C 531.425781 300.570312 531.945312 299.3125 531.945312 298 Z M 531.945312 298 " transform="matrix(1,0,0,1,-65,-4)"/>
<path style="fill-rule:evenodd;fill:rgb(50%,50%,50%);fill-opacity:1;stroke-width:1;stroke-linecap:square;stroke-linejoin:miter;stroke:rgb(0%,0%,0%);stroke-opacity:0.7;stroke-miterlimit:3.25;" d="M 686.945312 56 C 686.945312 54.6875 686.425781 53.429688 685.496094 52.503906 C 684.570312 51.574219 683.3125 51.054688 682 51.054688 C 680.6875 51.054688 679.429688 51.574219 678.503906 52.503906 C 677.574219 53.429688 677.054688 54.6875 677.054688 56 C 677.054688 57.3125 677.574219 58.570312 678.503906 59.496094 C 679.429688 60.425781 680.6875 60.945312 682 60.945312 C 683.3125 60.945312 684.570312 60.425781 685.496094 59.496094 C 686.425781 58.570312 686.945312 57.3125 686.945312 56 Z M 686.945312 56 " transform="matrix(1,0,0,1,-65,-4)"/>
<path style="fill-rule:evenodd;fill:rgb(50%,50%,50%);fill-opacity:1;stroke-width:1;stroke-linecap:square;stroke-linejoin:miter;stroke:rgb(0%,0%,0%);stroke-opacity:0.7;stroke-miterlimit:3.25;" d="M 1100.945312 325 C 1100.945312 323.6875 1100.425781 322.429688 1099.496094 321.503906 C 1098.570312 320.574219 1097.3125 320.054688 1096 320.054688 C 1094.6875 320.054688 1093.429688 320.574219 1092.503906 321.503906 C 1091.574219 322.429688 1091.054688 323.6875 1091.054688 325 C 1091.054688 326.3125 1091.574219 327.570312 1092.503906 328.496094 C 1093.429688 329.425781 1094.6875 329.945312 1096 329.945312 C 1097.3125 329.945312 1098.570312 329.425781 1099.496094 328.496094 C 1100.425781 327.570312 1100.945312 326.3125 1100.945312 325 Z M 1100.945312 325 " transform="matrix(1,0,0,1,-65,-4)"/>
<path style="fill-rule:evenodd;fill:rgb(50%,50%,50%);fill-opacity:1;stroke-width:1;stroke-linecap:square;stroke-linejoin:miter;stroke:rgb(0%,0%,0%);stroke-opacity:0.7;stroke-miterlimit:3.25;" d="M 772.945312 234 C 772.945312 232.6875 772.425781 231.429688 771.496094 230.503906 C 770.570312 229.574219 769.3125 229.054688 768 229.054688 C 766.6875 229.054688 765.429688 229.574219 764.503906 230.503906 C 763.574219 231.429688 763.054688 232.6875 763.054688 234 C 763.054688 235.3125 763.574219 236.570312 764.503906 237.496094 C 765.429688 238.425781 766.6875 238.945312 768 238.945312 C 769.3125 238.945312 770.570312 238.425781 771.496094 237.496094 C 772.425781 236.570312 772.945312 235.3125 772.945312 234 Z M 772.945312 234 " transform="matrix(1,0,0,1,-65,-4)"/>
<path style="fill-rule:evenodd;fill:rgb(50%,50%,50%);fill-opacity:1;stroke-width:1;stroke-linecap:square;stroke-linejoin:miter;stroke:rgb(0%,0%,0%);stroke-opacity:0.7;stroke-miterlimit:3.25;" d="M 861.945312 343 C 861.945312 341.6875 861.425781 340.429688 860.496094 339.503906 C 859.570312 338.574219 858.3125 338.054688 857 338.054688 C 855.6875 338.054688 854.429688 338.574219 853.503906 339.503906 C 852.574219 340.429688 852.054688 341.6875 852.054688 343 C 852.054688 344.3125 852.574219 345.570312 853.503906 346.496094 C 854.429688 347.425781 855.6875 347.945312 857 347.945312 C 858.3125 347.945312 859.570312 347.425781 860.496094 346.496094 C 861.425781 345.570312 861.945312 344.3125 861.945312 343 Z M 861.945312 343 " transform="matrix(1,0,0,1,-65,-4)"/>
<path style="fill-rule:evenodd;fill:rgb(50%,50%,50%);fill-opacity:1;stroke-width:1;stroke-linecap:square;stroke-linejoin:miter;stroke:rgb(0%,0%,0%);stroke-opacity:0.7;stroke-miterlimit:3.25;" d="M 304.945312 235 C 304.945312 233.6875 304.425781 232.429688 303.496094 231.503906 C 302.570312 230.574219 301.3125 230.054688 300 230.054688 C 298.6875 230.054688 297.429688 230.574219 296.503906 231.503906 C 295.574219 232.429688 295.054688 233.6875 295.054688 235 C 295.054688 236.3125 295.574219 237.570312 296.503906 238.496094 C 297.429688 239.425781 298.6875 239.945312 300 239.945312 C 301.3125 239.945312 302.570312 239.425781 303.496094 238.496094 C 304.425781 237.570312 304.945312 236.3125 304.945312 235 Z M 304.945312 235 " transform="matrix(1,0,0,1,-65,-4)"/>
<path style="fill-rule:evenodd;fill:rgb(50%,50%,50%);fill-opacity:1;stroke-width:1;stroke-linecap:square;stroke-linejoin:miter;stroke:rgb(0%,0%,0%);stroke-opacity:0.7;stroke-miterlimit:3.25;" d="M 531.945312 178 C 531.945312 176.6875 531.425781 175.429688 530.496094 174.503906 C 529.570312 173.574219 528.3125 173.054688 527 173.054688 C 525.6875 173.054688 524.429688 173.574219 523.503906 174.503906 C 522.574219 175.429688 522.054688 176.6875 522.054688 178 C 522.054688 179.3125 522.574219 180.570312 523.503906 181.496094 C 524.429688 182.425781 525.6875 182.945312 527 182.945312 C 528.3125 182.945312 529.570312 182.425781 530.496094 181.496094 C 531.425781 180.570312 531.945312 179.3125 531.945312 178 Z M 531.945312 178 " transform="matrix(1,0,0,1,-65,-4)"/>
<path style="fill-rule:evenodd;fill:rgb(50%,50%,50%);fill-opacity:1;stroke-width:1;stroke-linecap:square;stroke-linejoin:miter;stroke:rgb(0%,0%,0%);stroke-opacity:0.7;stroke-miterlimit:3.25;" d="M 940.945312 328 C 940.945312 326.6875 940.425781 325.429688 939.496094 324.503906 C 938.570312 323.574219 937.3125 323.054688 936 323.054688 C 934.6875 323.054688 933.429688 323.574219 932.503906 324.503906 C 931.574219 325.429688 931.054688 326.6875 931.054688 328 C 931.054688 329.3125 931.574219 330.570312 932.503906 331.496094 C 933.429688 332.425781 934.6875 332.945312 936 332.945312 C 937.3125 332.945312 938.570312 332.425781 939.496094 331.496094 C 940.425781 330.570312 940.945312 329.3125 940.945312 328 Z M 940.945312 328 " transform="matrix(1,0,0,1,-65,-4)"/>
<path style="fill-rule:evenodd;fill:rgb(50%,50%,50%);fill-opacity:1;stroke-width:1;stroke-linecap:square;stroke-linejoin:miter;stroke:rgb(0%,0%,0%);stroke-opacity:0.7;stroke-miterlimit:3.25;" d="M 210.945312 401 C 210.945312 399.6875 210.425781 398.429688 209.496094 397.503906 C 208.570312 396.574219 207.3125 396.054688 206 396.054688 C 204.6875 396.054688 203.429688 396.574219 202.503906 397.503906 C 201.574219 398.429688 201.054688 399.6875 201.054688 401 C 201.054688 402.3125 201.574219 403.570312 202.503906 404.496094 C 203.429688 405.425781 204.6875 405.945312 206 405.945312 C 207.3125 405.945312 208.570312 405.425781 209.496094 404.496094 C 210.425781 403.570312 210.945312 402.3125 210.945312 401 Z M 210.945312 401 " transform="matrix(1,0,0,1,-65,-4)"/>
<path style="fill-rule:evenodd;fill:rgb(50%,50%,50%);fill-opacity:1;stroke-width:1;stroke-linecap:square;stroke-linejoin:miter;stroke:rgb(0%,0%,0%);stroke-opacity:0.7;stroke-miterlimit:3.25;" d="M 743.945312 122 C 743.945312 120.6875 743.425781 119.429688 742.496094 118.503906 C 741.570312 117.574219 740.3125 117.054688 739 117.054688 C 737.6875 117.054688 736.429688 117.574219 735.503906 118.503906 C 734.574219 119.429688 734.054688 120.6875 734.054688 122 C 734.054688 123.3125 734.574219 124.570312 735.503906 125.496094 C 736.429688 126.425781 737.6875 126.945312 739 126.945312 C 740.3125 126.945312 741.570312 126.425781 742.496094 125.496094 C 743.425781 124.570312 743.945312 123.3125 743.945312 122 Z M 743.945312 122 " transform="matrix(1,0,0,1,-65,-4)"/>
<path style="fill-rule:evenodd;fill:rgb(50%,50%,50%);fill-opacity:1;stroke-width:1;stroke-linecap:square;stroke-linejoin:miter;stroke:rgb(0%,0%,0%);stroke-opacity:0.7;stroke-miterlimit:3.25;" d="M 672.945312 162 C 672.945312 160.6875 672.425781 159.429688 671.496094 158.503906 C 670.570312 157.574219 669.3125 157.054688 668 157.054688 C 666.6875 157.054688 665.429688 157.574219 664.503906 158.503906 C 663.574219 159.429688 663.054688 160.6875 663.054688 162 C 663.054688 163.3125 663.574219 164.570312 664.503906 165.496094 C 665.429688 166.425781 666.6875 166.945312 668 166.945312 C 669.3125 166.945312 670.570312 166.425781 671.496094 165.496094 C 672.425781 164.570312 672.945312 163.3125 672.945312 162 Z M 672.945312 162 " transform="matrix(1,0,0,1,-65,-4)"/>
<path style="fill-rule:evenodd;fill:rgb(50%,50%,50%);fill-opacity:1;stroke-width:1;stroke-linecap:square;stroke-linejoin:miter;stroke:rgb(0%,0%,0%);stroke-opacity:0.7;stroke-miterlimit:3.25;" d="M 664.945312 90 C 664.945312 88.6875 664.425781 87.429688 663.496094 86.503906 C 662.570312 85.574219 661.3125 85.054688 660 85.054688 C 658.6875 85.054688 657.429688 85.574219 656.503906 86.503906 C 655.574219 87.429688 655.054688 88.6875 655.054688 90 C 655.054688 91.3125 655.574219 92.570312 656.503906 93.496094 C 657.429688 94.425781 658.6875 94.945312 660 94.945312 C 661.3125 94.945312 662.570312 94.425781 663.496094 93.496094 C 664.425781 92.570312 664.945312 91.3125 664.945312 90 Z M 664.945312 90 " transform="matrix(1,0,0,1,-65,-4)"/>
<path style="fill-rule:evenodd;fill:rgb(50%,50%,50%);fill-opacity:1;stroke-width:1;stroke-linecap:square;stroke-linejoin:miter;stroke:rgb(0%,0%,0%);stroke-opacity:0.7;stroke-miterlimit:3.25;" d="M 660.945312 343 C 660.945312 341.6875 660.425781 340.429688 659.496094 339.503906 C 658.570312 338.574219 657.3125 338.054688 656 338.054688 C 654.6875 338.054688 653.429688 338.574219 652.503906 339.503906 C 651.574219 340.429688 651.054688 341.6875 651.054688 343 C 651.054688 344.3125 651.574219 345.570312 652.503906 346.496094 C 653.429688 347.425781 654.6875 347.945312 656 347.945312 C 657.3125 347.945312 658.570312 347.425781 659.496094 346.496094 C 660.425781 345.570312 660.945312 344.3125 660.945312 343 Z M 660.945312 343 " transform="matrix(1,0,0,1,-65,-4)"/>
<path style="fill-rule:evenodd;fill:rgb(50%,50%,50%);fill-opacity:1;stroke-width:1;stroke-linecap:square;stroke-linejoin:miter;stroke:rgb(0%,0%,0%);stroke-opacity:0.7;stroke-miterlimit:3.25;" d="M 647.945312 42 C 647.945312 40.6875 647.425781 39.429688 646.496094 38.503906 C 645.570312 37.574219 644.3125 37.054688 643 37.054688 C 641.6875 37.054688 640.429688 37.574219 639.503906 38.503906 C 638.574219 39.429688 638.054688 40.6875 638.054688 42 C 638.054688 43.3125 638.574219 44.570312 639.503906 45.496094 C 640.429688 46.425781 641.6875 46.945312 643 46.945312 C 644.3125 46.945312 645.570312 46.425781 646.496094 45.496094 C 647.425781 44.570312 647.945312 43.3125 647.945312 42 Z M 647.945312 42 " transform="matrix(1,0,0,1,-65,-4)"/>
<path style="fill-rule:evenodd;fill:rgb(50%,50%,50%);fill-opacity:1;stroke-width:1;stroke-linecap:square;stroke-linejoin:miter;stroke:rgb(0%,0%,0%);stroke-opacity:0.7;stroke-miterlimit:3.25;" d="M 124.945312 362 C 124.945312 360.6875 124.425781 359.429688 123.496094 358.503906 C 122.570312 357.574219 121.3125 357.054688 120 357.054688 C 118.6875 357.054688 117.429688 357.574219 116.503906 358.503906 C 115.574219 359.429688 115.054688 360.6875 115.054688 362 C 115.054688 363.3125 115.574219 364.570312 116.503906 365.496094 C 117.429688 366.425781 118.6875 366.945312 120 366.945312 C 121.3125 366.945312 122.570312 366.425781 123.496094 365.496094 C 124.425781 364.570312 124.945312 363.3125 124.945312 362 Z M 124.945312 362 " transform="matrix(1,0,0,1,-65,-4)"/>
<path style="fill-rule:evenodd;fill:rgb(50%,50%,50%);fill-opacity:1;stroke-width:1;stroke-linecap:square;stroke-linejoin:miter;stroke:rgb(0%,0%,0%);stroke-opacity:0.7;stroke-miterlimit:3.25;" d="M 367.945312 308 C 367.945312 306.6875 367.425781 305.429688 366.496094 304.503906 C 365.570312 303.574219 364.3125 303.054688 363 303.054688 C 361.6875 303.054688 360.429688 303.574219 359.503906 304.503906 C 358.574219 305.429688 358.054688 306.6875 358.054688 308 C 358.054688 309.3125 358.574219 310.570312 359.503906 311.496094 C 360.429688 312.425781 361.6875 312.945312 363 312.945312 C 364.3125 312.945312 365.570312 312.425781 366.496094 311.496094 C 367.425781 310.570312 367.945312 309.3125 367.945312 308 Z M 367.945312 308 " transform="matrix(1,0,0,1,-65,-4)"/>
<path style="fill-rule:evenodd;fill:rgb(50%,50%,50%);fill-opacity:1;stroke-width:1;stroke-linecap:square;stroke-linejoin:miter;stroke:rgb(0%,0%,0%);stroke-opacity:0.7;stroke-miterlimit:3.25;" d="M 601.945312 382 C 601.945312 380.6875 601.425781 379.429688 600.496094 378.503906 C 599.570312 377.574219 598.3125 377.054688 597 377.054688 C 595.6875 377.054688 594.429688 377.574219 593.503906 378.503906 C 592.574219 379.429688 592.054688 380.6875 592.054688 382 C 592.054688 383.3125 592.574219 384.570312 593.503906 385.496094 C 594.429688 386.425781 595.6875 386.945312 597 386.945312 C 598.3125 386.945312 599.570312 386.425781 600.496094 385.496094 C 601.425781 384.570312 601.945312 383.3125 601.945312 382 Z M 601.945312 382 " transform="matrix(1,0,0,1,-65,-4)"/>
<path style="fill-rule:evenodd;fill:rgb(50%,50%,50%);fill-opacity:1;stroke-width:1;stroke-linecap:square;stroke-linejoin:miter;stroke:rgb(0%,0%,0%);stroke-opacity:0.7;stroke-miterlimit:3.25;" d="M 230.945312 194 C 230.945312 192.6875 230.425781 191.429688 229.496094 190.503906 C 228.570312 189.574219 227.3125 189.054688 226 189.054688 C 224.6875 189.054688 223.429688 189.574219 222.503906 190.503906 C 221.574219 191.429688 221.054688 192.6875 221.054688 194 C 221.054688 195.3125 221.574219 196.570312 222.503906 197.496094 C 223.429688 198.425781 224.6875 198.945312 226 198.945312 C 227.3125 198.945312 228.570312 198.425781 229.496094 197.496094 C 230.425781 196.570312 230.945312 195.3125 230.945312 194 Z M 230.945312 194 " transform="matrix(1,0,0,1,-65,-4)"/>
<path style="fill-rule:evenodd;fill:rgb(50%,50%,50%);fill-opacity:1;stroke-width:1;stroke-linecap:square;stroke-linejoin:miter;stroke:rgb(0%,0%,0%);stroke-opacity:0.7;stroke-miterlimit:3.25;" d="M 905.945312 365 C 905.945312 363.6875 905.425781 362.429688 904.496094 361.503906 C 903.570312 360.574219 902.3125 360.054688 901 360.054688 C 899.6875 360.054688 898.429688 360.574219 897.503906 361.503906 C 896.574219 362.429688 896.054688 363.6875 896.054688 365 C 896.054688 366.3125 896.574219 367.570312 897.503906 368.496094 C 898.429688 369.425781 899.6875 369.945312 901 369.945312 C 902.3125 369.945312 903.570312 369.425781 904.496094 368.496094 C 905.425781 367.570312 905.945312 366.3125 905.945312 365 Z M 905.945312 365 " transform="matrix(1,0,0,1,-65,-4)"/>
<path style="fill:none;stroke-width:1;stroke-linecap:square;stroke-linejoin:miter;stroke:rgb(0%,0%,0%);stroke-opacity:0.7;stroke-miterlimit:3.25;" d="M 305.945312 -3 C 305.945312 -4.3125 305.425781 -5.570312 304.496094 -6.496094 C 303.570312 -7.425781 302.3125 -7.945312 301 -7.945312 C 299.6875 -7.945312 298.429688 -7.425781 297.503906 -6.496094 C 296.574219 -5.570312 296.054688 -4.3125 296.054688 -3 C 296.054688 -1.6875 296.574219 -0.429688 297.503906 0.496094 C 298.429688 1.425781 299.6875 1.945312 301 1.945312 C 302.3125 1.945312 303.570312 1.425781 304.496094 0.496094 C 305.425781 -0.429688 305.945312 -1.6875 305.945312 -3 Z M 305.945312 -3 " transform="matrix(1,0,0,1,-65,-4)"/>
<path style="fill-rule:evenodd;fill:rgb(50%,50%,50%);fill-opacity:1;stroke-width:1;stroke-linecap:square;stroke-linejoin:miter;stroke:rgb(0%,0%,0%);stroke-opacity:0.7;stroke-miterlimit:3.25;" d="M 472.945312 70 C 472.945312 68.6875 472.425781 67.429688 471.496094 66.503906 C 470.570312 65.574219 469.3125 65.054688 468 65.054688 C 466.6875 65.054688 465.429688 65.574219 464.503906 66.503906 C 463.574219 67.429688 463.054688 68.6875 463.054688 70 C 463.054688 71.3125 463.574219 72.570312 464.503906 73.496094 C 465.429688 74.425781 466.6875 74.945312 468 74.945312 C 469.3125 74.945312 470.570312 74.425781 471.496094 73.496094 C 472.425781 72.570312 472.945312 71.3125 472.945312 70 Z M 472.945312 70 " transform="matrix(1,0,0,1,-65,-4)"/>
<path style="fill-rule:evenodd;fill:rgb(50%,50%,50%);fill-opacity:1;stroke-width:1;stroke-linecap:square;stroke-linejoin:miter;stroke:rgb(0%,0%,0%);stroke-opacity:0.7;stroke-miterlimit:3.25;" d="M 299.945312 118 C 299.945312 116.6875 299.425781 115.429688 298.496094 114.503906 C 297.570312 113.574219 296.3125 113.054688 295 113.054688 C 293.6875 113.054688 292.429688 113.574219 291.503906 114.503906 C 290.574219 115.429688 290.054688 116.6875 290.054688 118 C 290.054688 119.3125 290.574219 120.570312 291.503906 121.496094 C 292.429688 122.425781 293.6875 122.945312 295 122.945312 C 296.3125 122.945312 297.570312 122.425781 298.496094 121.496094 C 299.425781 120.570312 299.945312 119.3125 299.945312 118 Z M 299.945312 118 " transform="matrix(1,0,0,1,-65,-4)"/>
<path style="fill-rule:evenodd;fill:rgb(50%,50%,50%);fill-opacity:1;stroke-width:1;stroke-linecap:square;stroke-linejoin:miter;stroke:rgb(0%,0%,0%);stroke-opacity:0.7;stroke-miterlimit:3.25;" d="M 1007.945312 13 C 1007.945312 11.6875 1007.425781 10.429688 1006.496094 9.503906 C 1005.570312 8.574219 1004.3125 8.054688 1003 8.054688 C 1001.6875 8.054688 1000.429688 8.574219 999.503906 9.503906 C 998.574219 10.429688 998.054688 11.6875 998.054688 13 C 998.054688 14.3125 998.574219 15.570312 999.503906 16.496094 C 1000.429688 17.425781 1001.6875 17.945312 1003 17.945312 C 1004.3125 17.945312 1005.570312 17.425781 1006.496094 16.496094 C 1007.425781 15.570312 1007.945312 14.3125 1007.945312 13 Z M 1007.945312 13 " transform="matrix(1,0,0,1,-65,-4)"/>
<path style="fill-rule:evenodd;fill:rgb(50%,50%,50%);fill-opacity:1;stroke-width:1;stroke-linecap:square;stroke-linejoin:miter;stroke:rgb(0%,0%,0%);stroke-opacity:0.7;stroke-miterlimit:3.25;" d="M 857.945312 260 C 857.945312 258.6875 857.425781 257.429688 856.496094 256.503906 C 855.570312 255.574219 854.3125 255.054688 853 255.054688 C 851.6875 255.054688 850.429688 255.574219 849.503906 256.503906 C 848.574219 257.429688 848.054688 258.6875 848.054688 260 C 848.054688 261.3125 848.574219 262.570312 849.503906 263.496094 C 850.429688 264.425781 851.6875 264.945312 853 264.945312 C 854.3125 264.945312 855.570312 264.425781 856.496094 263.496094 C 857.425781 262.570312 857.945312 261.3125 857.945312 260 Z M 857.945312 260 " transform="matrix(1,0,0,1,-65,-4)"/>
<path style="fill-rule:evenodd;fill:rgb(50%,50%,50%);fill-opacity:1;stroke-width:1;stroke-linecap:square;stroke-linejoin:miter;stroke:rgb(0%,0%,0%);stroke-opacity:0.7;stroke-miterlimit:3.25;" d="M 215.945312 250 C 215.945312 248.6875 215.425781 247.429688 214.496094 246.503906 C 213.570312 245.574219 212.3125 245.054688 211 245.054688 C 209.6875 245.054688 208.429688 245.574219 207.503906 246.503906 C 206.574219 247.429688 206.054688 248.6875 206.054688 250 C 206.054688 251.3125 206.574219 252.570312 207.503906 253.496094 C 208.429688 254.425781 209.6875 254.945312 211 254.945312 C 212.3125 254.945312 213.570312 254.425781 214.496094 253.496094 C 215.425781 252.570312 215.945312 251.3125 215.945312 250 Z M 215.945312 250 " transform="matrix(1,0,0,1,-65,-4)"/>
<path style="fill-rule:evenodd;fill:rgb(50%,50%,50%);fill-opacity:1;stroke-width:1;stroke-linecap:square;stroke-linejoin:miter;stroke:rgb(0%,0%,0%);stroke-opacity:0.7;stroke-miterlimit:3.25;" d="M 453.945312 361 C 453.945312 359.6875 453.425781 358.429688 452.496094 357.503906 C 451.570312 356.574219 450.3125 356.054688 449 356.054688 C 447.6875 356.054688 446.429688 356.574219 445.503906 357.503906 C 444.574219 358.429688 444.054688 359.6875 444.054688 361 C 444.054688 362.3125 444.574219 363.570312 445.503906 364.496094 C 446.429688 365.425781 447.6875 365.945312 449 365.945312 C 450.3125 365.945312 451.570312 365.425781 452.496094 364.496094 C 453.425781 363.570312 453.945312 362.3125 453.945312 361 Z M 453.945312 361 " transform="matrix(1,0,0,1,-65,-4)"/>
<path style="fill-rule:evenodd;fill:rgb(50%,50%,50%);fill-opacity:1;stroke-width:1;stroke-linecap:square;stroke-linejoin:miter;stroke:rgb(0%,0%,0%);stroke-opacity:0.7;stroke-miterlimit:3.25;" d="M 205.945312 297 C 205.945312 295.6875 205.425781 294.429688 204.496094 293.503906 C 203.570312 292.574219 202.3125 292.054688 201 292.054688 C 199.6875 292.054688 198.429688 292.574219 197.503906 293.503906 C 196.574219 294.429688 196.054688 295.6875 196.054688 297 C 196.054688 298.3125 196.574219 299.570312 197.503906 300.496094 C 198.429688 301.425781 199.6875 301.945312 201 301.945312 C 202.3125 301.945312 203.570312 301.425781 204.496094 300.496094 C 205.425781 299.570312 205.945312 298.3125 205.945312 297 Z M 205.945312 297 " transform="matrix(1,0,0,1,-65,-4)"/>
<path style="fill-rule:evenodd;fill:rgb(50%,50%,50%);fill-opacity:1;stroke-width:1;stroke-linecap:square;stroke-linejoin:miter;stroke:rgb(0%,0%,0%);stroke-opacity:0.7;stroke-miterlimit:3.25;" d="M 696.945312 224 C 696.945312 222.6875 696.425781 221.429688 695.496094 220.503906 C 694.570312 219.574219 693.3125 219.054688 692 219.054688 C 690.6875 219.054688 689.429688 219.574219 688.503906 220.503906 C 687.574219 221.429688 687.054688 222.6875 687.054688 224 C 687.054688 225.3125 687.574219 226.570312 688.503906 227.496094 C 689.429688 228.425781 690.6875 228.945312 692 228.945312 C 693.3125 228.945312 694.570312 228.425781 695.496094 227.496094 C 696.425781 226.570312 696.945312 225.3125 696.945312 224 Z M 696.945312 224 " transform="matrix(1,0,0,1,-65,-4)"/>
<path style="fill-rule:evenodd;fill:rgb(50%,50%,50%);fill-opacity:1;stroke-width:1;stroke-linecap:square;stroke-linejoin:miter;stroke:rgb(0%,0%,0%);stroke-opacity:0.7;stroke-miterlimit:3.25;" d="M 451.945312 106 C 451.945312 104.6875 451.425781 103.429688 450.496094 102.503906 C 449.570312 101.574219 448.3125 101.054688 447 101.054688 C 445.6875 101.054688 444.429688 101.574219 443.503906 102.503906 C 442.574219 103.429688 442.054688 104.6875 442.054688 106 C 442.054688 107.3125 442.574219 108.570312 443.503906 109.496094 C 444.429688 110.425781 445.6875 110.945312 447 110.945312 C 448.3125 110.945312 449.570312 110.425781 450.496094 109.496094 C 451.425781 108.570312 451.945312 107.3125 451.945312 106 Z M 451.945312 106 " transform="matrix(1,0,0,1,-65,-4)"/>
<path style="fill-rule:evenodd;fill:rgb(50%,50%,50%);fill-opacity:1;stroke-width:1;stroke-linecap:square;stroke-linejoin:miter;stroke:rgb(0%,0%,0%);stroke-opacity:0.7;stroke-miterlimit:3.25;" d="M 715.945312 299 C 715.945312 297.6875 715.425781 296.429688 714.496094 295.503906 C 713.570312 294.574219 712.3125 294.054688 711 294.054688 C 709.6875 294.054688 708.429688 294.574219 707.503906 295.503906 C 706.574219 296.429688 706.054688 297.6875 706.054688 299 C 706.054688 300.3125 706.574219 301.570312 707.503906 302.496094 C 708.429688 303.425781 709.6875 303.945312 711 303.945312 C 712.3125 303.945312 713.570312 303.425781 714.496094 302.496094 C 715.425781 301.570312 715.945312 300.3125 715.945312 299 Z M 715.945312 299 " transform="matrix(1,0,0,1,-65,-4)"/>
<path style="fill-rule:evenodd;fill:rgb(50%,50%,50%);fill-opacity:1;stroke-width:1;stroke-linecap:square;stroke-linejoin:miter;stroke:rgb(0%,0%,0%);stroke-opacity:0.7;stroke-miterlimit:3.25;" d="M 428.945312 251 C 428.945312 249.6875 428.425781 248.429688 427.496094 247.503906 C 426.570312 246.574219 425.3125 246.054688 424 246.054688 C 422.6875 246.054688 421.429688 246.574219 420.503906 247.503906 C 419.574219 248.429688 419.054688 249.6875 419.054688 251 C 419.054688 252.3125 419.574219 253.570312 420.503906 254.496094 C 421.429688 255.425781 422.6875 255.945312 424 255.945312 C 425.3125 255.945312 426.570312 255.425781 427.496094 254.496094 C 428.425781 253.570312 428.945312 252.3125 428.945312 251 Z M 428.945312 251 " transform="matrix(1,0,0,1,-65,-4)"/>
<path style="fill-rule:evenodd;fill:rgb(50%,50%,50%);fill-opacity:1;stroke-width:1;stroke-linecap:square;stroke-linejoin:miter;stroke:rgb(0%,0%,0%);stroke-opacity:0.7;stroke-miterlimit:3.25;" d="M 797.945312 156 C 797.945312 154.6875 797.425781 153.429688 796.496094 152.503906 C 795.570312 151.574219 794.3125 151.054688 793 151.054688 C 791.6875 151.054688 790.429688 151.574219 789.503906 152.503906 C 788.574219 153.429688 788.054688 154.6875 788.054688 156 C 788.054688 157.3125 788.574219 158.570312 789.503906 159.496094 C 790.429688 160.425781 791.6875 160.945312 793 160.945312 C 794.3125 160.945312 795.570312 160.425781 796.496094 159.496094 C 797.425781 158.570312 797.945312 157.3125 797.945312 156 Z M 797.945312 156 " transform="matrix(1,0,0,1,-65,-4)"/>
<path style="fill-rule:evenodd;fill:rgb(50%,50%,50%);fill-opacity:1;stroke-width:1;stroke-linecap:square;stroke-linejoin:miter;stroke:rgb(0%,0%,0%);stroke-opacity:0.7;stroke-miterlimit:3.25;" d="M 500.945312 361 C 500.945312 359.6875 500.425781 358.429688 499.496094 357.503906 C 498.570312 356.574219 497.3125 356.054688 496 356.054688 C 494.6875 356.054688 493.429688 356.574219 492.503906 357.503906 C 491.574219 358.429688 491.054688 359.6875 491.054688 361 C 491.054688 362.3125 491.574219 363.570312 492.503906 364.496094 C 493.429688 365.425781 494.6875 365.945312 496 365.945312 C 497.3125 365.945312 498.570312 365.425781 499.496094 364.496094 C 500.425781 363.570312 500.945312 362.3125 500.945312 361 Z M 500.945312 361 " transform="matrix(1,0,0,1,-65,-4)"/>
<path style="fill-rule:evenodd;fill:rgb(50%,50%,50%);fill-opacity:1;stroke-width:1;stroke-linecap:square;stroke-linejoin:miter;stroke:rgb(0%,0%,0%);stroke-opacity:0.7;stroke-miterlimit:3.25;" d="M 603.945312 97 C 603.945312 95.6875 603.425781 94.429688 602.496094 93.503906 C 601.570312 92.574219 600.3125 92.054688 599 92.054688 C 597.6875 92.054688 596.429688 92.574219 595.503906 93.503906 C 594.574219 94.429688 594.054688 95.6875 594.054688 97 C 594.054688 98.3125 594.574219 99.570312 595.503906 100.496094 C 596.429688 101.425781 597.6875 101.945312 599 101.945312 C 600.3125 101.945312 601.570312 101.425781 602.496094 100.496094 C 603.425781 99.570312 603.945312 98.3125 603.945312 97 Z M 603.945312 97 " transform="matrix(1,0,0,1,-65,-4)"/>
<path style="fill-rule:evenodd;fill:rgb(50%,50%,50%);fill-opacity:1;stroke-width:1;stroke-linecap:square;stroke-linejoin:miter;stroke:rgb(0%,0%,0%);stroke-opacity:0.7;stroke-miterlimit:3.25;" d="M 1004.945312 209 C 1004.945312 207.6875 1004.425781 206.429688 1003.496094 205.503906 C 1002.570312 204.574219 1001.3125 204.054688 1000 204.054688 C 998.6875 204.054688 997.429688 204.574219 996.503906 205.503906 C 995.574219 206.429688 995.054688 207.6875 995.054688 209 C 995.054688 210.3125 995.574219 211.570312 996.503906 212.496094 C 997.429688 213.425781 998.6875 213.945312 1000 213.945312 C 1001.3125 213.945312 1002.570312 213.425781 1003.496094 212.496094 C 1004.425781 211.570312 1004.945312 210.3125 1004.945312 209 Z M 1004.945312 209 " transform="matrix(1,0,0,1,-65,-4)"/>
<path style="fill-rule:evenodd;fill:rgb(50%,50%,50%);fill-opacity:1;stroke-width:1;stroke-linecap:square;stroke-linejoin:miter;stroke:rgb(0%,0%,0%);stroke-opacity:0.7;stroke-miterlimit:3.25;" d="M 492.945312 405 C 492.945312 403.6875 492.425781 402.429688 491.496094 401.503906 C 490.570312 400.574219 489.3125 400.054688 488 400.054688 C 486.6875 400.054688 485.429688 400.574219 484.503906 401.503906 C 483.574219 402.429688 483.054688 403.6875 483.054688 405 C 483.054688 406.3125 483.574219 407.570312 484.503906 408.496094 C 485.429688 409.425781 486.6875 409.945312 488 409.945312 C 489.3125 409.945312 490.570312 409.425781 491.496094 408.496094 C 492.425781 407.570312 492.945312 406.3125 492.945312 405 Z M 492.945312 405 " transform="matrix(1,0,0,1,-65,-4)"/>
<path style="fill-rule:evenodd;fill:rgb(50%,50%,50%);fill-opacity:1;stroke-width:1;stroke-linecap:square;stroke-linejoin:miter;stroke:rgb(0%,0%,0%);stroke-opacity:0.7;stroke-miterlimit:3.25;" d="M 451.945312 163 C 451.945312 161.6875 451.425781 160.429688 450.496094 159.503906 C 449.570312 158.574219 448.3125 158.054688 447 158.054688 C 445.6875 158.054688 444.429688 158.574219 443.503906 159.503906 C 442.574219 160.429688 442.054688 161.6875 442.054688 163 C 442.054688 164.3125 442.574219 165.570312 443.503906 166.496094 C 444.429688 167.425781 445.6875 167.945312 447 167.945312 C 448.3125 167.945312 449.570312 167.425781 450.496094 166.496094 C 451.425781 165.570312 451.945312 164.3125 451.945312 163 Z M 451.945312 163 " transform="matrix(1,0,0,1,-65,-4)"/>
<path style="fill-rule:evenodd;fill:rgb(50%,50%,50%);fill-opacity:1;stroke-width:1;stroke-linecap:square;stroke-linejoin:miter;stroke:rgb(0%,0%,0%);stroke-opacity:0.7;stroke-miterlimit:3.25;" d="M 860.945312 218 C 860.945312 216.6875 860.425781 215.429688 859.496094 214.503906 C 858.570312 213.574219 857.3125 213.054688 856 213.054688 C 854.6875 213.054688 853.429688 213.574219 852.503906 214.503906 C 851.574219 215.429688 851.054688 216.6875 851.054688 218 C 851.054688 219.3125 851.574219 220.570312 852.503906 221.496094 C 853.429688 222.425781 854.6875 222.945312 856 222.945312 C 857.3125 222.945312 858.570312 222.425781 859.496094 221.496094 C 860.425781 220.570312 860.945312 219.3125 860.945312 218 Z M 860.945312 218 " transform="matrix(1,0,0,1,-65,-4)"/>
<path style="fill-rule:evenodd;fill:rgb(50%,50%,50%);fill-opacity:1;stroke-width:1;stroke-linecap:square;stroke-linejoin:miter;stroke:rgb(0%,0%,0%);stroke-opacity:0.7;stroke-miterlimit:3.25;" d="M 582.945312 6 C 582.945312 4.6875 582.425781 3.429688 581.496094 2.503906 C 580.570312 1.574219 579.3125 1.054688 578 1.054688 C 576.6875 1.054688 575.429688 1.574219 574.503906 2.503906 C 573.574219 3.429688 573.054688 4.6875 573.054688 6 C 573.054688 7.3125 573.574219 8.570312 574.503906 9.496094 C 575.429688 10.425781 576.6875 10.945312 578 10.945312 C 579.3125 10.945312 580.570312 10.425781 581.496094 9.496094 C 582.425781 8.570312 582.945312 7.3125 582.945312 6 Z M 582.945312 6 " transform="matrix(1,0,0,1,-65,-4)"/>
<path style="fill-rule:evenodd;fill:rgb(50%,50%,50%);fill-opacity:1;stroke-width:1;stroke-linecap:square;stroke-linejoin:miter;stroke:rgb(0%,0%,0%);stroke-opacity:0.7;stroke-miterlimit:3.25;" d="M 631.945312 202 C 631.945312 200.6875 631.425781 199.429688 630.496094 198.503906 C 629.570312 197.574219 628.3125 197.054688 627 197.054688 C 625.6875 197.054688 624.429688 197.574219 623.503906 198.503906 C 622.574219 199.429688 622.054688 200.6875 622.054688 202 C 622.054688 203.3125 622.574219 204.570312 623.503906 205.496094 C 624.429688 206.425781 625.6875 206.945312 627 206.945312 C 628.3125 206.945312 629.570312 206.425781 630.496094 205.496094 C 631.425781 204.570312 631.945312 203.3125 631.945312 202 Z M 631.945312 202 " transform="matrix(1,0,0,1,-65,-4)"/>
<path style="fill-rule:evenodd;fill:rgb(50%,50%,50%);fill-opacity:1;stroke-width:1;stroke-linecap:square;stroke-linejoin:miter;stroke:rgb(0%,0%,0%);stroke-opacity:0.7;stroke-miterlimit:3.25;" d="M 250.945312 107 C 250.945312 105.6875 250.425781 104.429688 249.496094 103.503906 C 248.570312 102.574219 247.3125 102.054688 246 102.054688 C 244.6875 102.054688 243.429688 102.574219 242.503906 103.503906 C 241.574219 104.429688 241.054688 105.6875 241.054688 107 C 241.054688 108.3125 241.574219 109.570312 242.503906 110.496094 C 243.429688 111.425781 244.6875 111.945312 246 111.945312 C 247.3125 111.945312 248.570312 111.425781 249.496094 110.496094 C 250.425781 109.570312 250.945312 108.3125 250.945312 107 Z M 250.945312 107 " transform="matrix(1,0,0,1,-65,-4)"/>
<path style="fill:none;stroke-width:1;stroke-linecap:square;stroke-linejoin:miter;stroke:rgb(0%,0%,0%);stroke-opacity:0.7;stroke-miterlimit:3.25;" d="M 63.945312 399 C 63.945312 397.6875 63.425781 396.429688 62.496094 395.503906 C 61.570312 394.574219 60.3125 394.054688 59 394.054688 C 57.6875 394.054688 56.429688 394.574219 55.503906 395.503906 C 54.574219 396.429688 54.054688 397.6875 54.054688 399 C 54.054688 400.3125 54.574219 401.570312 55.503906 402.496094 C 56.429688 403.425781 57.6875 403.945312 59 403.945312 C 60.3125 403.945312 61.570312 403.425781 62.496094 402.496094 C 63.425781 401.570312 63.945312 400.3125 63.945312 399 Z M 63.945312 399 " transform="matrix(1,0,0,1,-65,-4)"/>
<path style="fill-rule:evenodd;fill:rgb(50%,50%,50%);fill-opacity:1;stroke-width:1;stroke-linecap:square;stroke-linejoin:miter;stroke:rgb(0%,0%,0%);stroke-opacity:0.7;stroke-miterlimit:3.25;" d="M 556.945312 234 C 556.945312 232.6875 556.425781 231.429688 555.496094 230.503906 C 554.570312 229.574219 553.3125 229.054688 552 229.054688 C 550.6875 229.054688 549.429688 229.574219 548.503906 230.503906 C 547.574219 231.429688 547.054688 232.6875 547.054688 234 C 547.054688 235.3125 547.574219 236.570312 548.503906 237.496094 C 549.429688 238.425781 550.6875 238.945312 552 238.945312 C 553.3125 238.945312 554.570312 238.425781 555.496094 237.496094 C 556.425781 236.570312 556.945312 235.3125 556.945312 234 Z M 556.945312 234 " transform="matrix(1,0,0,1,-65,-4)"/>
<path style="fill-rule:evenodd;fill:rgb(50%,50%,50%);fill-opacity:1;stroke-width:1;stroke-linecap:square;stroke-linejoin:miter;stroke:rgb(0%,0%,0%);stroke-opacity:0.7;stroke-miterlimit:3.25;" d="M 818.945312 357 C 818.945312 355.6875 818.425781 354.429688 817.496094 353.503906 C 816.570312 352.574219 815.3125 352.054688 814 352.054688 C 812.6875 352.054688 811.429688 352.574219 810.503906 353.503906 C 809.574219 354.429688 809.054688 355.6875 809.054688 357 C 809.054688 358.3125 809.574219 359.570312 810.503906 360.496094 C 811.429688 361.425781 812.6875 361.945312 814 361.945312 C 815.3125 361.945312 816.570312 361.425781 817.496094 360.496094 C 818.425781 359.570312 818.945312 358.3125 818.945312 357 Z M 818.945312 357 " transform="matrix(1,0,0,1,-65,-4)"/>
<path style="fill-rule:evenodd;fill:rgb(50%,50%,50%);fill-opacity:1;stroke-width:1;stroke-linecap:square;stroke-linejoin:miter;stroke:rgb(0%,0%,0%);stroke-opacity:0.7;stroke-miterlimit:3.25;" d="M 957.945312 174 C 957.945312 172.6875 957.425781 171.429688 956.496094 170.503906 C 955.570312 169.574219 954.3125 169.054688 953 169.054688 C 951.6875 169.054688 950.429688 169.574219 949.503906 170.503906 C 948.574219 171.429688 948.054688 172.6875 948.054688 174 C 948.054688 175.3125 948.574219 176.570312 949.503906 177.496094 C 950.429688 178.425781 951.6875 178.945312 953 178.945312 C 954.3125 178.945312 955.570312 178.425781 956.496094 177.496094 C 957.425781 176.570312 957.945312 175.3125 957.945312 174 Z M 957.945312 174 " transform="matrix(1,0,0,1,-65,-4)"/>
<path style="fill-rule:evenodd;fill:rgb(50%,50%,50%);fill-opacity:1;stroke-width:1;stroke-linecap:square;stroke-linejoin:miter;stroke:rgb(0%,0%,0%);stroke-opacity:0.7;stroke-miterlimit:3.25;" d="M 796.945312 397 C 796.945312 395.6875 796.425781 394.429688 795.496094 393.503906 C 794.570312 392.574219 793.3125 392.054688 792 392.054688 C 790.6875 392.054688 789.429688 392.574219 788.503906 393.503906 C 787.574219 394.429688 787.054688 395.6875 787.054688 397 C 787.054688 398.3125 787.574219 399.570312 788.503906 400.496094 C 789.429688 401.425781 790.6875 401.945312 792 401.945312 C 793.3125 401.945312 794.570312 401.425781 795.496094 400.496094 C 796.425781 399.570312 796.945312 398.3125 796.945312 397 Z M 796.945312 397 " transform="matrix(1,0,0,1,-65,-4)"/>
<path style="fill-rule:evenodd;fill:rgb(50%,50%,50%);fill-opacity:1;stroke-width:1;stroke-linecap:square;stroke-linejoin:miter;stroke:rgb(0%,0%,0%);stroke-opacity:0.7;stroke-miterlimit:3.25;" d="M 564.945312 62 C 564.945312 60.6875 564.425781 59.429688 563.496094 58.503906 C 562.570312 57.574219 561.3125 57.054688 560 57.054688 C 558.6875 57.054688 557.429688 57.574219 556.503906 58.503906 C 555.574219 59.429688 555.054688 60.6875 555.054688 62 C 555.054688 63.3125 555.574219 64.570312 556.503906 65.496094 C 557.429688 66.425781 558.6875 66.945312 560 66.945312 C 561.3125 66.945312 562.570312 66.425781 563.496094 65.496094 C 564.425781 64.570312 564.945312 63.3125 564.945312 62 Z M 564.945312 62 " transform="matrix(1,0,0,1,-65,-4)"/>
<path style="fill-rule:evenodd;fill:rgb(50%,50%,50%);fill-opacity:1;stroke-width:1;stroke-linecap:square;stroke-linejoin:miter;stroke:rgb(0%,0%,0%);stroke-opacity:0.7;stroke-miterlimit:3.25;" d="M 1074.945312 225 C 1074.945312 223.6875 1074.425781 222.429688 1073.496094 221.503906 C 1072.570312 220.574219 1071.3125 220.054688 1070 220.054688 C 1068.6875 220.054688 1067.429688 220.574219 1066.503906 221.503906 C 1065.574219 222.429688 1065.054688 223.6875 1065.054688 225 C 1065.054688 226.3125 1065.574219 227.570312 1066.503906 228.496094 C 1067.429688 229.425781 1068.6875 229.945312 1070 229.945312 C 1071.3125 229.945312 1072.570312 229.425781 1073.496094 228.496094 C 1074.425781 227.570312 1074.945312 226.3125 1074.945312 225 Z M 1074.945312 225 " transform="matrix(1,0,0,1,-65,-4)"/>
</g>
</svg>
